<svg width="188" height="170" viewBox="0 0 188 170" fill="none" xmlns="http://www.w3.org/2000/svg">
<path d="M27.5324 154.921C64.2417 175.026 123.759 175.026 160.468 154.921C197.177 134.815 197.177 102.218 160.468 82.1126C123.759 62.0068 64.2409 62.0068 27.5316 82.1122C-9.17733 102.218 -9.17733 134.815 27.5324 154.921Z" fill="#F5F5F5"/>
<path d="M150.709 150.706C160.641 150.706 168.692 146.392 168.692 141.07C168.692 135.749 160.641 131.435 150.709 131.435C140.778 131.435 132.727 135.749 132.727 141.07C132.727 146.392 140.778 150.706 150.709 150.706Z" fill="#E0E0E0"/>
<path d="M139.429 17.0446L142.549 18.7169C142.534 18.5877 142.523 18.4589 142.523 18.3335V17.4944C142.523 16.0015 143.652 15.3961 145.045 16.1427C145.609 16.4448 146.129 16.9241 146.549 17.4845C146.777 15.6072 148.364 14.9077 150.292 15.9407C152.376 17.0574 154.066 19.7736 154.066 22.0075V23.2628C154.066 23.8414 153.951 24.3286 153.747 24.7168L156.339 26.1055C157.112 26.5198 157.738 27.5267 157.738 28.3549C157.738 29.1831 157.112 29.5188 156.339 29.1045L139.429 20.0436C138.656 19.6293 138.029 18.6225 138.029 17.7942C138.03 16.9664 138.656 16.6306 139.429 17.0446Z" fill="#EBEBEB"/>
<path d="M126.074 25.4828L128.429 26.7446C128.417 26.6471 128.409 26.5501 128.409 26.4553V25.8219C128.409 24.695 129.262 24.2384 130.313 24.8019C130.739 25.03 131.131 25.3918 131.448 25.8148C131.62 24.3978 132.818 23.8702 134.273 24.6497C135.846 25.4926 137.121 27.5426 137.121 29.2285V30.1757C137.121 30.6122 137.034 30.9801 136.88 31.2732L138.836 32.3212C139.419 32.6335 139.892 33.3937 139.892 34.0188C139.892 34.6438 139.419 34.8972 138.836 34.5845L126.074 27.7461C125.49 27.4338 125.018 26.6736 125.018 26.0485C125.018 25.4239 125.491 25.1705 126.074 25.4828Z" fill="#EBEBEB"/>
<path d="M21.6034 96.9147C21.373 97.0306 17.1185 98.1515 15.5421 96.2194C13.966 94.2873 16.581 91.2754 15.1026 90.1654C13.6242 89.0555 9.48073 90.1719 8.48333 87.8337C7.48593 85.4956 10.4423 84.4937 8.7808 82.1404C7.73416 80.6581 5.16476 79.828 4.9385 78.4578C4.56005 76.1677 8.64936 75.1155 12.1466 77.2772C15.6438 79.4394 17.7586 78.4487 18.8683 78.3037C19.9781 78.1587 22.37 78.4786 22.2935 82.0936C22.217 85.709 21.6034 96.9147 21.6034 96.9147Z" fill="#27DEBF"/>
<path d="M21.8858 91.7733C21.7743 91.7733 21.6762 91.6985 21.6575 91.5932C20.4395 84.7329 11.8467 79.1491 7.3785 77.9508C7.25561 77.9179 7.18439 77.7986 7.2202 77.6845C7.25561 77.5708 7.3842 77.5051 7.50709 77.5376C12.0762 78.7627 20.8652 84.4844 22.1149 91.5233C22.1356 91.6404 22.0498 91.7514 21.9236 91.7707C21.911 91.7726 21.8984 91.7733 21.8858 91.7733Z" fill="white"/>
<path d="M11.7537 86.0312C11.6744 86.0312 11.5975 85.9934 11.5539 85.9262C11.4888 85.8242 11.5246 85.692 11.6349 85.6312C11.7741 85.5546 15.08 83.761 18.3376 84.5998C18.4609 84.6315 18.5333 84.7501 18.4987 84.8646C18.4645 84.979 18.338 85.0474 18.2135 85.0141C15.1488 84.2248 11.9035 85.9832 11.8713 86.001C11.8343 86.0214 11.7936 86.0312 11.7537 86.0312Z" fill="white"/>
<path d="M23.2539 99.5494C23.2539 100.528 24.043 101.744 25.0163 102.265L74.3883 128.719C75.3613 129.241 76.9394 129.241 77.9124 128.719L145.467 92.5222C146.44 92.0006 147.229 90.7849 147.229 89.8064C147.229 88.8278 146.44 87.6121 145.467 87.0906L96.0947 60.6363C95.1217 60.1147 93.5436 60.1147 92.5707 60.6363L25.0159 96.834C24.0426 97.3555 23.2539 98.5712 23.2539 99.5494Z" fill="#37474F"/>
<path d="M76.1496 125.571V129.11C75.5107 129.11 74.8719 128.982 74.3876 128.721L25.014 102.266C24.0414 101.744 23.252 100.528 23.252 99.5501C23.252 98.6324 23.9478 97.5069 24.8349 96.9404C24.0455 97.4654 24.1065 98.2358 25.014 98.723L74.3876 125.178C74.8719 125.439 75.5112 125.571 76.1496 125.571Z" fill="#263238"/>
<path d="M21.6006 96.8925C20.6879 96.4035 19.9477 95.1613 19.9477 94.1186L19.9473 39.4383C19.9473 38.3956 20.7363 37.1274 21.7093 36.6059L89.264 0.408919C90.237 -0.112636 91.7663 -0.138694 92.679 0.350382C93.5922 0.839458 94.3324 2.0816 94.3324 3.12433V57.8046C94.3324 58.8473 93.5434 60.1155 92.5704 60.6371L25.0157 96.834C24.0423 97.3555 22.5134 97.3816 21.6006 96.8925Z" fill="#455A64"/>
<path d="M24.808 96.9327C23.8355 97.3557 22.4519 97.3481 21.6014 96.8912C20.6898 96.404 19.9492 95.1615 19.9492 94.1191V39.437C19.9492 38.9158 20.1446 38.338 20.466 37.8281L23.7704 39.5956V39.5994C23.4529 40.113 23.2535 40.687 23.2535 41.2082V95.8904C23.2535 96.8572 23.9335 97.2915 24.808 96.9327Z" fill="#263238"/>
<path d="M23.2539 41.2098V95.8901C23.2539 96.9328 24.043 97.3558 25.0159 96.8342L92.5707 60.6373C93.5436 60.1157 94.3327 58.8475 94.3327 57.8048V3.12456C94.3327 2.08183 93.5436 1.65884 92.5707 2.1804L25.0159 38.3773C24.0426 38.8989 23.2539 40.1671 23.2539 41.2098Z" fill="#37474F"/>
<path d="M25.0152 98.7225L74.3876 125.177C75.3606 125.698 76.9387 125.698 77.9117 125.177L145.466 88.9799C146.439 88.4583 146.439 87.6131 145.466 87.0916L96.0944 60.6373C95.1214 60.1157 93.5433 60.1157 92.5703 60.6373L25.0152 96.8342C24.0418 97.3557 24.0418 98.201 25.0152 98.7225Z" fill="#455A64"/>
<path d="M25.9635 41.4121L91.0949 6.52262C91.6788 6.20991 92.1521 6.46333 92.1521 7.08912V54.4234C92.1521 55.0492 91.6788 55.8102 91.0949 56.1229L25.9635 91.0116C25.3795 91.3243 24.9062 91.0709 24.9062 90.4451V43.1112C24.9062 42.4858 25.3795 41.7248 25.9635 41.4121Z" fill="white"/>
<path opacity="0.6" d="M25.9635 41.4121L91.0949 6.52262C91.6788 6.20991 92.1521 6.46333 92.1521 7.08912V54.4234C92.1521 55.0492 91.6788 55.8102 91.0949 56.1229L25.9635 91.0116C25.3795 91.3243 24.9062 91.0709 24.9062 90.4451V43.1112C24.9062 42.4858 25.3795 41.7248 25.9635 41.4121Z" fill="#58FF55"/>
<path d="M58.3899 38.4196C60.1239 37.4902 61.5298 38.2436 61.5298 40.1017C61.5298 41.9602 60.1239 44.2198 58.3899 45.1488C56.656 46.0779 55.25 45.3248 55.25 43.4663C55.25 41.6082 56.656 39.3487 58.3899 38.4196Z" fill="#F0F0F0"/>
<path d="M64.5783 48.3581C64.5783 45.3051 62.2685 43.9496 59.42 45.4762L57.6388 46.4301C54.7902 47.9567 52.4805 51.6691 52.4805 54.7221V55.5439L64.5783 49.0662V48.3581Z" fill="#F0F0F0"/>
<path d="M70.6964 49.8658C70.5812 49.6195 70.289 49.5572 69.9582 49.7332L48.8313 61.0466C48.6185 61.1602 48.4199 61.3581 48.2799 61.5881C48.137 61.8155 48.0508 62.07 48.0508 62.303V64.6102C48.0508 65.003 48.3031 65.1952 48.6445 65.1057C48.6799 65.0963 48.6998 65.0895 48.6998 65.0895C48.7466 65.0732 48.7902 65.0517 48.8313 65.0298L69.9582 53.7165C70.39 53.4865 70.7403 52.923 70.7403 52.46V50.1528C70.7399 50.061 70.7285 49.9455 70.6964 49.8658Z" fill="#F0F0F0"/>
<path d="M50.7403 61.3323C51.1501 61.1128 51.4825 61.2907 51.4825 61.7299C51.4825 62.1692 51.1505 62.7032 50.7403 62.923C50.3301 63.1428 49.998 62.9645 49.998 62.5253C49.998 62.0861 50.3301 61.5517 50.7403 61.3323Z" fill="#27DEBF"/>
<path d="M53.1954 60.017C53.6052 59.7972 53.9376 59.9754 53.9376 60.4147C53.9376 60.8539 53.6052 61.3879 53.1954 61.6077C52.7856 61.8271 52.4531 61.6493 52.4531 61.21C52.4531 60.7708 52.7852 60.2364 53.1954 60.017Z" fill="#27DEBF"/>
<path d="M55.6505 58.7014C56.0602 58.482 56.3927 58.6599 56.3927 59.0991C56.3927 59.5383 56.0606 60.0723 55.6505 60.2921C55.2403 60.5119 54.9082 60.3337 54.9082 59.8944C54.9082 59.4552 55.2403 58.9212 55.6505 58.7014Z" fill="#27DEBF"/>
<path d="M58.1055 57.3861C58.5153 57.1663 58.8478 57.3446 58.8478 57.7838C58.8478 58.223 58.5157 58.7571 58.1055 58.9769C57.6953 59.1967 57.3633 59.0184 57.3633 58.5792C57.3633 58.14 57.6953 57.6059 58.1055 57.3861Z" fill="#27DEBF"/>
<path d="M60.5606 56.0705C60.9704 55.8511 61.3029 56.029 61.3029 56.4682C61.3029 56.9074 60.9704 57.4415 60.5606 57.6613C60.1508 57.8807 59.8184 57.7028 59.8184 57.2636C59.8184 56.8244 60.1504 56.2903 60.5606 56.0705Z" fill="#27DEBF"/>
<path d="M63.0157 54.7551C63.4255 54.5357 63.7579 54.7136 63.7579 55.1528C63.7579 55.592 63.4259 56.126 63.0157 56.3458C62.6055 56.5656 62.2734 56.3874 62.2734 55.9482C62.2734 55.5089 62.6059 54.9749 63.0157 54.7551Z" fill="#27DEBF"/>
<path d="M65.4708 53.4397C65.8806 53.2203 66.213 53.3981 66.213 53.8374C66.213 54.2766 65.881 54.8106 65.4708 55.0304C65.061 55.2502 64.7285 55.0719 64.7285 54.6327C64.7285 54.1935 65.061 53.6595 65.4708 53.4397Z" fill="#27DEBF"/>
<path d="M67.9258 52.1242C68.3356 51.9048 68.6681 52.0827 68.6681 52.5219C68.6681 52.9612 68.336 53.4952 67.9258 53.715C67.5161 53.9344 67.1836 53.7565 67.1836 53.3173C67.184 52.8781 67.5161 52.3437 67.9258 52.1242Z" fill="#27DEBF"/>
<path d="M30.7459 97.3064L93.4511 63.7081C93.9378 63.4475 94.7265 63.4475 95.2132 63.7081L98.4202 65.4265C98.9069 65.6871 98.9069 66.1101 98.4202 66.3707L35.7056 99.9636C35.2189 100.224 34.4299 100.224 33.9436 99.9636L30.7459 98.2505C30.2592 97.9896 30.2592 97.5669 30.7459 97.3064Z" fill="#37474F"/>
<path d="M39.0129 101.735L101.717 68.1359C102.204 67.8753 102.993 67.8753 103.479 68.1359L123.206 78.7063C123.693 78.9669 123.693 79.3899 123.206 79.6505L60.5736 113.203C60.0869 113.464 59.2975 113.465 58.81 113.206L39.0149 102.677C38.527 102.417 38.5262 101.995 39.0129 101.735Z" fill="#263238"/>
<path d="M95.2208 83.2528L97.1839 82.201C97.2673 82.156 97.2624 82.0809 97.1729 82.0329L94.9026 80.8165C94.8131 80.7685 94.6727 80.7658 94.5892 80.8104L92.6258 81.8626C92.5424 81.9072 92.5472 81.9823 92.6372 82.0303L94.9075 83.2467C94.997 83.2947 95.1374 83.2973 95.2208 83.2528ZM91.3464 79.0728L89.3829 80.1246C89.2995 80.1695 89.3048 80.2447 89.3943 80.2926L91.6646 81.5091C91.7541 81.5571 91.8945 81.5597 91.9779 81.5151L93.941 80.463C94.0244 80.4184 94.0195 80.3432 93.93 80.2953L91.6597 79.0788C91.5702 79.0309 91.4298 79.0282 91.3464 79.0728ZM85.0034 82.4718L81.6808 84.2521C81.5974 84.2966 81.6023 84.3718 81.6918 84.4198L83.9621 85.6362C84.0516 85.6842 84.192 85.6868 84.2754 85.6423L87.5981 83.8619C87.6815 83.8174 87.6766 83.7422 87.5871 83.6943L85.3172 82.4778C85.2273 82.4295 85.0869 82.4268 85.0034 82.4718ZM88.4771 80.6103L86.5136 81.6624C86.4306 81.707 86.4351 81.7821 86.525 81.8301L88.7953 83.0466C88.8848 83.0945 89.0248 83.0972 89.1082 83.0526L91.0717 82.0008C91.1551 81.9559 91.1502 81.8811 91.0607 81.8331L88.7904 80.6167C88.7009 80.5683 88.5605 80.5657 88.4771 80.6103ZM80.775 84.7374L78.8119 85.7892C78.7285 85.8341 78.7334 85.9089 78.8229 85.9569L81.0932 87.1733C81.1827 87.2213 81.3227 87.2239 81.4061 87.1794L83.3696 86.1272C83.453 86.0826 83.4481 86.0075 83.3582 85.9595L81.0883 84.743C80.9984 84.6955 80.858 84.6928 80.775 84.7374ZM77.9053 86.2749L75.9422 87.3267C75.8588 87.3712 75.8637 87.4464 75.9532 87.4943L78.2235 88.7108C78.313 88.7587 78.4534 88.7614 78.5368 88.7168L80.5003 87.665C80.5837 87.6201 80.5788 87.5453 80.4893 87.4974L78.2186 86.2809C78.1291 86.2329 77.9891 86.2303 77.9053 86.2749ZM86.8351 91.2215L88.7985 90.1693C88.8815 90.1248 88.8771 90.0496 88.7871 90.0016L86.5168 88.7852C86.4273 88.7372 86.2869 88.7346 86.2035 88.7791L84.24 89.8309C84.1566 89.8759 84.1615 89.9507 84.251 89.999L86.5213 91.2155C86.6113 91.2634 86.7516 91.2661 86.8351 91.2215ZM83.9658 92.759L85.9288 91.7072C86.0122 91.6622 86.0074 91.5875 85.9174 91.5391L83.6475 90.323C83.558 90.2751 83.4176 90.2724 83.3342 90.317L81.3711 91.3692C81.2877 91.4137 81.2926 91.4893 81.3821 91.5369L83.6524 92.7533C83.7424 92.8009 83.8823 92.8036 83.9658 92.759ZM81.0965 94.2965L83.0599 93.2443C83.1433 93.1997 83.1385 93.1246 83.0489 93.0766L80.7786 91.8601C80.6891 91.8122 80.5487 91.8095 80.4653 91.8541L78.5022 92.9059C78.4188 92.9508 78.4237 93.0256 78.5136 93.0736L80.7835 94.29C80.8726 94.3384 81.013 94.341 81.0965 94.2965ZM78.2267 95.8339L80.1902 94.7821C80.2736 94.7376 80.2687 94.6624 80.1788 94.6145L77.9089 93.398C77.8194 93.35 77.679 93.3474 77.5956 93.392L75.6325 94.4438C75.5491 94.4883 75.554 94.5635 75.6435 94.6114L77.9138 95.8275C78.0033 95.8759 78.1433 95.8789 78.2267 95.8339ZM92.3515 84.7903L94.3146 83.7381C94.398 83.6935 94.3931 83.6184 94.3036 83.5704L92.0333 82.3539C91.9438 82.306 91.8038 82.3033 91.7203 82.3479L89.7569 83.3997C89.6735 83.4446 89.6783 83.5198 89.7679 83.5677L92.0382 84.7842C92.1277 84.8326 92.2681 84.8348 92.3515 84.7903ZM89.7048 89.684L94.0842 87.3372C94.1677 87.2923 94.1624 87.2175 94.0728 87.1695L88.5597 84.2154C88.4701 84.1675 88.3297 84.1648 88.2463 84.2094L85.9809 85.4232C85.8975 85.4682 85.9024 85.5429 85.9919 85.5913L88.9109 87.1552C89.0004 87.2032 89.0053 87.2783 88.9218 87.3229L87.1098 88.2939C87.0263 88.3384 87.0312 88.4136 87.1207 88.4615L89.391 89.678C89.481 89.726 89.6214 89.7286 89.7048 89.684ZM75.0359 87.8123L73.0725 88.8645C72.9891 88.9091 72.9939 88.9842 73.0839 89.0322L75.3542 90.2486C75.4437 90.2966 75.5837 90.2992 75.6675 90.2547L77.631 89.2029C77.7144 89.1579 77.7095 89.0832 77.6196 89.0348L75.3497 87.8184C75.2598 87.7704 75.1194 87.7678 75.0359 87.8123ZM72.1666 89.3498L70.2032 90.4016C70.1197 90.4465 70.1246 90.5217 70.2142 90.5697L72.484 91.7861C72.5736 91.8341 72.714 91.8367 72.7974 91.7922L74.7604 90.74C74.8439 90.6954 74.839 90.6199 74.7495 90.5723L72.4792 89.3558C72.39 89.3079 72.2501 89.3052 72.1666 89.3498ZM57.8278 106.591C57.9173 106.639 58.0573 106.641 58.1412 106.597L60.1046 105.544C60.188 105.5 60.1832 105.424 60.0936 105.376L57.8233 104.16C57.7338 104.112 57.5934 104.109 57.51 104.154L55.5469 105.206C55.4635 105.251 55.4684 105.325 55.5579 105.374L57.8278 106.591ZM49.2109 101.65L47.2475 102.702C47.164 102.746 47.1689 102.821 47.2585 102.869L49.5288 104.086C49.6183 104.134 49.7587 104.137 49.8421 104.092L51.8056 103.04C51.889 102.996 51.8841 102.92 51.7942 102.872L49.5239 101.656C49.4347 101.608 49.2948 101.605 49.2109 101.65ZM53.8293 105.257C53.9188 105.305 54.0592 105.308 54.1426 105.263L56.1061 104.211C56.1895 104.167 56.1842 104.092 56.0947 104.044L53.8248 102.827C53.7353 102.779 53.5953 102.777 53.5114 102.821L51.5484 103.873C51.465 103.918 51.4698 103.993 51.5594 104.041L53.8293 105.257ZM62.8942 107.525L64.8577 106.473C64.9411 106.428 64.9362 106.353 64.8467 106.305L62.5764 105.089C62.4868 105.041 62.3464 105.038 62.263 105.083L60.3 106.135C60.2169 106.18 60.2214 106.255 60.3113 106.303L62.5817 107.519C62.6708 107.567 62.8108 107.57 62.8942 107.525ZM59.7115 109.056C59.8011 109.104 59.9414 109.107 60.0245 109.062L61.9879 108.01C62.0714 107.966 62.0665 107.891 61.9769 107.843L59.7066 106.626C59.6171 106.578 59.4771 106.575 59.3933 106.62L57.4298 107.672C57.3464 107.717 57.3513 107.792 57.4412 107.84L59.7115 109.056ZM52.0807 100.112L50.1172 101.164C50.0338 101.209 50.0386 101.284 50.1286 101.332L52.3985 102.548C52.488 102.596 52.6284 102.599 52.7118 102.554L54.6749 101.502C54.7583 101.458 54.7534 101.383 54.6639 101.335L52.3936 100.118C52.3041 100.07 52.1641 100.068 52.0807 100.112ZM66.4276 92.4247L64.4641 93.4765C64.3811 93.5215 64.3856 93.5963 64.4755 93.6442L66.7458 94.8607C66.8354 94.9087 66.9753 94.9113 67.0592 94.8667L69.0226 93.8146C69.1061 93.77 69.1012 93.6948 69.0117 93.6469L66.7414 92.4304C66.651 92.3828 66.511 92.3802 66.4276 92.4247ZM54.95 98.575L52.9865 99.6268C52.9031 99.6714 52.908 99.7465 52.9975 99.7945L55.2678 101.011C55.3573 101.059 55.4977 101.062 55.5811 101.017L57.5442 99.9652C57.6276 99.9203 57.6227 99.8455 57.5328 99.7975L55.2629 98.5811C55.1738 98.5327 55.0334 98.5301 54.95 98.575ZM69.2969 90.8873L67.3339 91.9394C67.2504 91.984 67.2553 92.0592 67.3452 92.1071L69.6155 93.3236C69.7051 93.3716 69.8451 93.3746 69.9289 93.3296L71.8924 92.2778C71.9758 92.2329 71.9709 92.1581 71.8814 92.1102L69.6111 90.8937C69.5207 90.8453 69.3803 90.8427 69.2969 90.8873ZM63.5583 93.9626L61.5948 95.0144C61.5114 95.059 61.5163 95.1341 61.6058 95.1821L63.8761 96.3982C63.9656 96.4461 64.106 96.4491 64.1895 96.4042L66.1525 95.3524C66.2359 95.3078 66.2311 95.2327 66.1415 95.1847L63.8712 93.9683C63.7821 93.9203 63.6417 93.9177 63.5583 93.9626ZM60.689 95.4997L58.7259 96.5519C58.6425 96.5964 58.6474 96.6716 58.7369 96.7196L61.0072 97.936C61.0967 97.984 61.2371 97.9866 61.3206 97.9421L63.284 96.8903C63.367 96.8453 63.3622 96.7702 63.2726 96.7222L61.0027 95.5057C60.9124 95.4578 60.772 95.4551 60.689 95.4997ZM57.8197 97.0375L55.8562 98.0893C55.7728 98.1343 55.7777 98.2094 55.8672 98.2574L58.1375 99.4739C58.227 99.5218 58.3674 99.5245 58.4508 99.4799L60.4143 98.4277C60.4977 98.3832 60.4928 98.3076 60.4029 98.2597L58.1326 97.0436C58.0431 96.9953 57.9031 96.9926 57.8197 97.0375ZM72.4881 98.9089L74.4516 97.8567C74.535 97.8121 74.5301 97.7366 74.4406 97.689L72.1703 96.4726C72.0808 96.4246 71.9404 96.422 71.857 96.4665L69.8935 97.5183C69.8101 97.5633 69.815 97.638 69.9049 97.6864L72.1752 98.9028C72.2643 98.9512 72.4047 98.9538 72.4881 98.9089ZM97.6893 75.6742L95.7262 76.7263C95.6428 76.7709 95.6481 76.8461 95.7372 76.894L98.0075 78.1105C98.097 78.1584 98.2374 78.1611 98.3208 78.1165L100.284 77.0647C100.368 77.0198 100.362 76.945 100.273 76.8967L98.003 75.6802C97.9131 75.6322 97.7727 75.6296 97.6893 75.6742ZM94.2157 77.5353L92.2522 78.5875C92.1688 78.632 92.1737 78.7072 92.2632 78.7552L94.5335 79.9716C94.623 80.0196 94.7634 80.0222 94.8468 79.9777L96.8103 78.9259C96.8937 78.8809 96.8888 78.8058 96.7993 78.7578L94.529 77.5413C94.4395 77.4934 94.2991 77.4907 94.2157 77.5353ZM100.559 74.1367L98.5955 75.1885C98.5121 75.2331 98.517 75.3082 98.6065 75.3566L100.877 76.573C100.966 76.621 101.107 76.6236 101.19 76.5791L103.153 75.5273C103.237 75.4823 103.232 75.4072 103.142 75.3592L100.872 74.1427C100.782 74.0948 100.642 74.0921 100.559 74.1367ZM85.7062 88.3509L87.6697 87.2991C87.7531 87.2541 87.7482 87.1794 87.6583 87.131L85.3884 85.9146C85.2989 85.8666 85.1585 85.864 85.0751 85.9085L83.1116 86.9607C83.0282 87.0053 83.0331 87.0804 83.1226 87.1284L85.3929 88.3448C85.4828 88.3928 85.6228 88.3954 85.7062 88.3509ZM103.741 72.6053C103.652 72.5573 103.511 72.5547 103.428 72.5992L101.465 73.651C101.381 73.696 101.386 73.7707 101.476 73.8187L103.746 75.0352C103.836 75.0831 103.976 75.0858 104.059 75.0412L106.023 73.989C106.106 73.9445 106.101 73.8693 106.012 73.8213L103.741 72.6053ZM75.3574 97.3714L77.3205 96.3196C77.4039 96.2747 77.399 96.1999 77.3091 96.1519L75.0388 94.9355C74.9493 94.8875 74.8093 94.8849 74.7255 94.9294L72.762 95.9816C72.6786 96.0262 72.6834 96.1013 72.773 96.1493L75.0429 97.3657C75.1336 97.4137 75.274 97.416 75.3574 97.3714ZM110.546 78.5169L112.509 77.4651C112.593 77.4205 112.588 77.345 112.498 77.297L110.228 76.0809C110.138 76.033 109.998 76.0303 109.914 76.0749L107.951 77.1267C107.868 77.1712 107.873 77.2464 107.962 77.2947L110.233 78.5112C110.322 78.5588 110.462 78.5614 110.546 78.5169ZM104.433 78.3167L106.397 77.2645C106.48 77.22 106.475 77.1448 106.386 77.0968L104.115 75.8804C104.026 75.8324 103.885 75.8298 103.802 75.8743L101.839 76.9261C101.755 76.9711 101.76 77.0458 101.85 77.0942L104.12 78.3106C104.21 78.3586 104.35 78.3613 104.433 78.3167ZM106.985 74.3429C106.895 74.2949 106.755 74.2923 106.671 74.3369L104.708 75.389C104.625 75.4336 104.629 75.5088 104.719 75.5567L106.989 76.7732C107.079 76.8211 107.219 76.8238 107.302 76.7792L109.266 75.7274C109.349 75.6825 109.344 75.6077 109.255 75.5597L106.985 74.3429ZM107.589 74.0192L113.102 76.9733C113.192 77.0213 113.332 77.0239 113.415 76.9794L115.378 75.9276C115.462 75.8826 115.457 75.8079 115.367 75.7595L109.854 72.8054C109.764 72.7575 109.624 72.7548 109.54 72.7994L107.577 73.8512C107.494 73.8961 107.499 73.9713 107.589 74.0192ZM100.933 77.4122L98.9695 78.464C98.8861 78.5085 98.891 78.5837 98.9805 78.6317L101.251 79.8477C101.34 79.8957 101.481 79.8987 101.564 79.8538L103.527 78.802C103.611 78.7571 103.606 78.6823 103.516 78.6339L101.246 77.4175C101.156 77.3699 101.016 77.3672 100.933 77.4122ZM79.3364 88.9835L77.373 90.0356C77.2896 90.0802 77.2944 90.1554 77.384 90.2033L79.6543 91.4198C79.7438 91.4677 79.8842 91.4704 79.9676 91.4258L81.9311 90.374C82.0145 90.3291 82.0092 90.2543 81.9197 90.2063L79.6498 88.9899C79.5599 88.9415 79.4199 88.9389 79.3364 88.9835ZM107.363 80.0483C107.453 80.0963 107.593 80.0989 107.677 80.0543L109.64 79.0025C109.723 78.9576 109.719 78.8828 109.629 78.8348L107.359 77.6184C107.269 77.5704 107.129 77.5678 107.046 77.6123L105.082 78.6645C104.999 78.7091 105.004 78.7842 105.093 78.8322L107.363 80.0483ZM82.2058 87.4464L80.2423 88.4982C80.1589 88.5431 80.1642 88.6179 80.2537 88.6658L82.5236 89.8823C82.6131 89.9303 82.7531 89.9329 82.8369 89.8883L84.8004 88.8362C84.8838 88.7916 84.8789 88.7164 84.7894 88.6685L82.5191 87.452C82.4292 87.4041 82.2892 87.4014 82.2058 87.4464ZM60.6971 105.053C60.7867 105.101 60.927 105.104 61.0105 105.059L62.9739 104.007C63.057 103.962 63.0525 103.888 62.9625 103.84L60.6922 102.623C60.6027 102.575 60.4627 102.573 60.3793 102.617L58.4158 103.669C58.3324 103.714 58.3373 103.789 58.4268 103.837L60.6971 105.053ZM56.3808 101.284L54.4173 102.336C54.3339 102.38 54.3387 102.456 54.4287 102.504L56.699 103.72C56.7885 103.768 56.9289 103.771 57.0123 103.726L58.9758 102.674C59.0592 102.629 59.0543 102.554 58.9648 102.506L56.6945 101.29C56.6046 101.242 56.4642 101.239 56.3808 101.284ZM63.8798 103.521L65.8432 102.47C65.9267 102.425 65.9218 102.35 65.8323 102.302L63.562 101.086C63.4724 101.038 63.332 101.035 63.2486 101.08L61.2852 102.131C61.2021 102.176 61.2066 102.251 61.2965 102.299L63.5668 103.516C63.656 103.563 63.7964 103.566 63.8798 103.521ZM66.7491 101.984L68.7126 100.932C68.796 100.887 68.7911 100.813 68.7016 100.765L66.4313 99.5483C66.3421 99.5003 66.2018 99.4977 66.1179 99.5422L64.1549 100.594C64.0714 100.639 64.0763 100.714 64.1663 100.762L66.4366 101.978C66.5253 102.026 66.6657 102.029 66.7491 101.984ZM69.6184 100.446L71.5819 99.3946C71.6653 99.3496 71.6604 99.2748 71.5709 99.2265L69.3006 98.01C69.2111 97.9621 69.0711 97.9594 68.9872 98.0044L67.0242 99.0562C66.9408 99.1007 66.9456 99.1763 67.0352 99.2239L69.3051 100.44C69.395 100.489 69.535 100.491 69.6184 100.446ZM59.2501 99.7462L57.287 100.798C57.2036 100.843 57.2085 100.918 57.298 100.966L59.5683 102.182C59.6578 102.23 59.7978 102.233 59.8816 102.188L61.8451 101.136C61.9285 101.092 61.9236 101.016 61.8341 100.968L59.5638 99.7518C59.4739 99.7042 59.3339 99.7016 59.2501 99.7462ZM62.1198 98.2087L60.1563 99.2605C60.0729 99.3054 60.0778 99.3802 60.1673 99.4282L62.4376 100.645C62.5271 100.693 62.6675 100.695 62.7509 100.651L64.7144 99.5985C64.7974 99.5539 64.7929 99.4788 64.703 99.4308L62.4327 98.2144C62.3432 98.1668 62.2032 98.1641 62.1198 98.2087ZM73.5974 92.0588L71.634 93.1106C71.5505 93.1555 71.5554 93.2303 71.6453 93.2786L73.9156 94.4947C74.0052 94.5427 74.1452 94.5453 74.229 94.5008L76.1921 93.449C76.2755 93.4044 76.2706 93.3289 76.1811 93.2809L73.9108 92.0648C73.8208 92.0165 73.6808 92.0139 73.5974 92.0588ZM70.7281 93.5963L68.7646 94.6484C68.6812 94.693 68.6861 94.7685 68.7756 94.8161L71.0455 96.0326C71.1351 96.0806 71.2754 96.0832 71.3589 96.0386L73.3223 94.9868C73.4058 94.9419 73.4009 94.8671 73.3113 94.8188L71.041 93.6023C70.9515 93.554 70.8115 93.5513 70.7281 93.5963ZM76.4667 90.5209L74.5033 91.5727C74.4198 91.6177 74.4247 91.6925 74.5143 91.7404L76.7841 92.9569C76.8737 93.0048 77.0141 93.0075 77.0975 92.9629L79.061 91.9107C79.1444 91.8662 79.1395 91.791 79.0496 91.7431L76.7793 90.5266C76.6905 90.479 76.5502 90.4764 76.4667 90.5209ZM64.9891 96.6712L63.0256 97.7234C62.9422 97.768 62.9471 97.8431 63.0366 97.8911L65.3069 99.1075C65.3964 99.1555 65.5364 99.1581 65.6202 99.1136L67.5837 98.0618C67.6671 98.0168 67.6623 97.9421 67.5727 97.8941L65.3024 96.678C65.2129 96.6293 65.0725 96.6263 64.9891 96.6712ZM67.8584 95.1337L65.8949 96.1855C65.8115 96.2305 65.8164 96.3053 65.9063 96.3532L68.1766 97.5697C68.2661 97.6176 68.4061 97.6203 68.4896 97.5757L70.4526 96.5235C70.536 96.479 70.5312 96.4038 70.4416 96.3559L68.1713 95.1394C68.0822 95.0914 67.9418 95.0892 67.8584 95.1337ZM65.7635 105.987L67.7265 104.935C67.81 104.891 67.8051 104.816 67.7156 104.768L65.4453 103.551C65.3557 103.503 65.2158 103.501 65.1319 103.545L63.1689 104.597C63.0854 104.642 63.0903 104.717 63.1798 104.765L65.4497 105.981C65.5401 106.029 65.6801 106.032 65.7635 105.987ZM48.9253 104.41L46.655 103.193C46.5654 103.145 46.4255 103.143 46.3416 103.187L44.3786 104.239C44.2951 104.284 44.3 104.359 44.3896 104.407L46.6599 105.623C46.7494 105.671 46.8898 105.674 46.9732 105.629L48.9363 104.578C49.0197 104.533 49.0144 104.458 48.9253 104.41ZM53.2254 105.581L50.9551 104.365C50.8655 104.317 50.7256 104.314 50.6417 104.359L47.6214 105.977C47.538 106.021 47.5429 106.097 47.6328 106.145L49.9031 107.361C49.9927 107.409 50.1326 107.412 50.2165 107.367L53.2368 105.748C53.3198 105.704 53.3149 105.629 53.2254 105.581ZM45.4419 102.058L43.172 100.841C43.0825 100.793 42.9425 100.79 42.8587 100.835L40.4423 102.13C40.3588 102.175 40.3637 102.25 40.4537 102.298L42.7236 103.514C42.8131 103.562 42.9535 103.565 43.0369 103.52L45.4533 102.226C45.5367 102.181 45.5314 102.106 45.4419 102.058ZM47.2947 101.065C47.3842 101.113 47.5242 101.116 47.6076 101.071L49.5707 100.019C49.6541 99.9747 49.6492 99.8995 49.5597 99.8515L47.2894 98.6351C47.1999 98.5871 47.0595 98.5845 46.976 98.629L45.013 99.6808C44.9296 99.7258 44.9344 99.8006 45.024 99.8485L47.2947 101.065ZM57.2235 106.914L54.9532 105.698C54.8637 105.65 54.7233 105.647 54.6399 105.692L50.8643 107.715C50.7809 107.76 50.7858 107.835 50.8757 107.883L53.1456 109.099C53.2351 109.147 53.3751 109.15 53.459 109.105L57.2345 107.082C57.3183 107.037 57.313 106.962 57.2235 106.914ZM59.1076 109.38L56.8373 108.164C56.7482 108.116 56.6078 108.113 56.5244 108.158L54.108 109.453C54.0246 109.497 54.0295 109.573 54.119 109.62L56.3893 110.837C56.4788 110.885 56.6192 110.887 56.7026 110.843L59.119 109.548C59.202 109.504 59.1968 109.428 59.1076 109.38ZM68.6291 89.6338C68.7187 89.6818 68.8586 89.6844 68.9421 89.6398L70.9051 88.5877C70.9886 88.5431 70.9837 88.468 70.8941 88.42L68.6238 87.2035C68.5343 87.1556 68.3939 87.1529 68.3105 87.1975L66.3474 88.2493C66.264 88.2942 66.2689 88.369 66.3584 88.417L68.6291 89.6338ZM62.8901 92.7091C62.9796 92.7571 63.12 92.7597 63.2035 92.7152L65.1669 91.663C65.2503 91.6184 65.2455 91.5433 65.1555 91.4953L62.8852 90.2789C62.7957 90.2309 62.6557 90.2283 62.5719 90.2728L60.6084 91.3246C60.525 91.3696 60.5299 91.4443 60.6194 91.4927L62.8901 92.7091ZM50.164 99.5279C50.2535 99.5758 50.3939 99.5789 50.4773 99.5339L52.4408 98.4821C52.5242 98.4376 52.5193 98.3624 52.4298 98.3144L50.1595 97.098C50.07 97.05 49.93 97.0474 49.8462 97.0919L47.8827 98.1437C47.7993 98.1883 47.8042 98.2635 47.8937 98.3114L50.164 99.5279ZM65.7594 91.1713C65.8489 91.2192 65.9893 91.2223 66.0728 91.1773L68.0362 90.1255C68.1196 90.081 68.1144 90.0058 68.0248 89.9578L65.7549 88.7414C65.6654 88.6934 65.5254 88.6908 65.4416 88.7353L63.4785 89.7871C63.3951 89.8317 63.4 89.9069 63.4895 89.9548L65.7594 91.1713ZM60.0208 94.2466C60.1103 94.2946 60.2507 94.2972 60.3341 94.2523L62.2972 93.2005C62.3806 93.1559 62.3757 93.0804 62.2862 93.0324L60.0163 91.816C59.9268 91.768 59.7864 91.7654 59.703 91.8099L57.7395 92.8617C57.6561 92.9067 57.661 92.9814 57.7509 93.0298L60.0208 94.2466ZM60.6845 109.578C60.595 109.53 60.4546 109.527 60.3712 109.572L57.3509 111.19C57.2675 111.235 57.2723 111.31 57.3619 111.358L59.6322 112.574C59.7217 112.622 59.8617 112.625 59.9455 112.58L62.9658 110.962C63.0492 110.917 63.0443 110.842 62.9544 110.794L60.6845 109.578ZM55.903 96.4529C55.9925 96.5009 56.1325 96.5035 56.2164 96.459L58.1798 95.4072C58.2632 95.3622 58.2584 95.2875 58.1688 95.2391L55.8985 94.0226C55.809 93.9747 55.6686 93.972 55.5852 94.0166L53.6217 95.0688C53.5383 95.1134 53.5432 95.1885 53.6327 95.2365L55.903 96.4529ZM53.0333 97.9904C53.1228 98.0384 53.2632 98.041 53.3466 97.9964L55.3097 96.9443C55.3931 96.8997 55.3882 96.8246 55.2987 96.7766L53.0284 95.5601C52.9389 95.5122 52.7985 95.5095 52.7151 95.5541L50.7516 96.6059C50.6682 96.6508 50.6731 96.7256 50.763 96.7736L53.0333 97.9904ZM113.845 81.0937C113.755 81.0457 113.615 81.0431 113.531 81.0876L108.699 83.6773C108.616 83.7218 108.62 83.797 108.71 83.8453L110.98 85.0618C111.07 85.1098 111.21 85.1124 111.294 85.0678L116.126 82.4782C116.21 82.4336 116.205 82.3585 116.115 82.3105L113.845 81.0937ZM107.502 84.4923C107.412 84.4443 107.272 84.4417 107.188 84.4862L105.225 85.538C105.142 85.583 105.147 85.6577 105.236 85.7061L107.506 86.9225C107.596 86.9705 107.736 86.9731 107.82 86.9282L109.783 85.8764C109.866 85.8319 109.861 85.7567 109.771 85.7087L107.502 84.4923ZM68.6332 104.45L70.5967 103.398C70.6801 103.353 70.6752 103.278 70.5853 103.23L68.315 102.014C68.2255 101.966 68.0855 101.963 68.0016 102.008L66.0386 103.06C65.9552 103.104 65.96 103.18 66.0496 103.227L68.3199 104.444C68.4094 104.492 68.5498 104.495 68.6332 104.45ZM101.763 87.5672C101.673 87.5193 101.533 87.5166 101.449 87.5612L99.4859 88.613C99.4025 88.6579 99.4074 88.7331 99.4973 88.781L101.768 89.9975C101.857 90.0455 101.998 90.0481 102.081 90.0035L104.044 88.9514C104.128 88.9068 104.123 88.8316 104.033 88.7837L101.763 87.5672ZM116.714 79.5562C116.624 79.5082 116.484 79.5056 116.401 79.5501L114.437 80.6023C114.354 80.6469 114.359 80.722 114.449 80.77L116.719 81.9865C116.808 82.0344 116.949 82.0371 117.032 81.9925L118.996 80.9407C119.079 80.8958 119.074 80.821 118.985 80.773L116.714 79.5562ZM121.854 79.2352L116.34 76.2807C116.25 76.2327 116.11 76.2301 116.027 76.2747L114.063 77.3268C113.98 77.3714 113.985 77.4466 114.075 77.4945L119.588 80.449C119.677 80.497 119.818 80.4996 119.901 80.455L121.865 79.4029C121.948 79.3583 121.943 79.2831 121.854 79.2352ZM91.0399 93.3126C90.9504 93.2647 90.81 93.262 90.727 93.3066L88.3106 94.6012C88.2272 94.6458 88.2321 94.721 88.3216 94.7693L90.5919 95.9857C90.6814 96.0337 90.8218 96.0364 90.9052 95.9918L93.3216 94.6972C93.4051 94.6526 93.4002 94.5771 93.3106 94.5295L91.0399 93.3126ZM98.2891 89.4284C98.1996 89.3804 98.0592 89.3777 97.9758 89.4223L94.9551 91.041C94.8717 91.0855 94.8769 91.1607 94.9661 91.2087L97.2364 92.4251C97.3259 92.4731 97.4659 92.4757 97.5497 92.4312L100.57 90.8129C100.653 90.7683 100.649 90.6932 100.559 90.6452L98.2891 89.4284ZM84.3951 96.8733C84.3055 96.8253 84.1652 96.8227 84.0817 96.8672L67.9223 105.526C67.8389 105.571 67.8438 105.646 67.9333 105.694L70.2036 106.91C70.2931 106.958 70.4331 106.961 70.5169 106.916L86.6764 98.2578C86.7598 98.2128 86.7549 98.1377 86.6654 98.0897L84.3951 96.8733ZM67.3298 106.017C67.2403 105.969 67.0999 105.967 67.0164 106.011L64.6001 107.306C64.5166 107.35 64.5215 107.426 64.6114 107.474L66.8818 108.69C66.9713 108.738 67.1117 108.741 67.1951 108.696L69.6115 107.401C69.6945 107.357 69.69 107.282 69.6001 107.234L67.3298 106.017ZM87.7177 95.093C87.6282 95.045 87.4882 95.0424 87.4044 95.0869L84.988 96.3815C84.9046 96.4265 84.9094 96.5013 84.999 96.5496L87.2693 97.7657C87.3588 97.814 87.4992 97.8167 87.5826 97.7717L89.999 96.4767C90.0824 96.4322 90.0775 96.357 89.9876 96.309L87.7177 95.093ZM64.0071 107.798C63.9176 107.75 63.7776 107.747 63.6938 107.792L61.2774 109.086C61.194 109.131 61.1993 109.206 61.2888 109.254L63.5587 110.47C63.6482 110.518 63.7882 110.521 63.872 110.476L66.2884 109.182C66.3719 109.137 66.367 109.062 66.2775 109.014L64.0071 107.798ZM94.3626 91.5327C94.2731 91.4847 94.1331 91.4817 94.0492 91.5267L91.6329 92.8213C91.5498 92.8659 91.5543 92.941 91.6442 92.989L93.9145 94.2054C94.0041 94.2534 94.1445 94.256 94.2275 94.2115L96.6439 92.9169C96.7273 92.8723 96.7224 92.7971 96.6325 92.7492L94.3626 91.5327ZM104.632 86.0297C104.543 85.9818 104.402 85.9791 104.319 86.0237L102.356 87.0759C102.272 87.1204 102.277 87.1956 102.367 87.2436L104.637 88.46C104.726 88.508 104.867 88.5106 104.95 88.4661L106.914 87.4143C106.997 87.3693 106.992 87.2945 106.903 87.2462L104.632 86.0297ZM110.919 81.792L112.882 80.7402C112.966 80.6952 112.961 80.6201 112.871 80.5721L110.601 79.3557C110.511 79.3077 110.371 79.305 110.288 79.3496L108.324 80.4014C108.241 80.446 108.246 80.5211 108.336 80.5695L110.606 81.7859C110.696 81.8343 110.836 81.8369 110.919 81.792ZM98.0901 81.7153L100.053 80.6635C100.137 80.6189 100.132 80.5438 100.042 80.4954L97.7719 79.2794C97.6824 79.2314 97.5424 79.2284 97.4586 79.2733L95.4951 80.3251C95.4117 80.3701 95.4165 80.4448 95.5065 80.4928L97.7764 81.7089C97.8667 81.7572 98.0067 81.7602 98.0901 81.7153ZM91.5885 92.1498L97.3275 89.0749C97.4109 89.0303 97.4061 88.9551 97.3161 88.9072L95.0458 87.6907C94.9563 87.6428 94.8163 87.6401 94.7325 87.6847L88.9935 90.7596C88.91 90.8042 88.9149 90.8793 89.0045 90.9273L91.2743 92.1434C91.3651 92.1921 91.5051 92.1948 91.5885 92.1498ZM107.737 83.3238C107.826 83.3717 107.967 83.3744 108.05 83.3298L110.013 82.278C110.097 82.2331 110.092 82.1583 110.002 82.11L107.732 80.8935C107.643 80.8455 107.502 80.8429 107.419 80.8875L105.456 81.9396C105.372 81.9842 105.378 82.0594 105.467 82.1073L107.737 83.3238ZM104.807 81.5918L106.77 80.5396C106.853 80.4951 106.849 80.4199 106.759 80.3719L104.489 79.1555C104.4 79.1075 104.259 79.1049 104.176 79.1494L102.212 80.2012C102.129 80.2462 102.134 80.321 102.223 80.3689L104.494 81.5854C104.583 81.6341 104.724 81.6364 104.807 81.5918ZM88.7192 93.6877L90.6827 92.6355C90.7661 92.5909 90.7612 92.5158 90.6717 92.4678L88.4014 91.2513C88.3118 91.2034 88.1715 91.2007 88.088 91.2453L86.1246 92.2975C86.0411 92.342 86.046 92.4172 86.136 92.4652L88.4063 93.6816C88.4954 93.7296 88.6358 93.7322 88.7192 93.6877ZM101.394 86.7224C101.483 86.7703 101.624 86.773 101.707 86.7284L103.67 85.6763C103.753 85.6317 103.749 85.5565 103.659 85.5086L101.389 84.2921C101.299 84.2441 101.159 84.2415 101.075 84.2861L99.1119 85.3379C99.0285 85.3828 99.0334 85.4576 99.1229 85.5055L101.394 86.7224ZM74.3722 101.375L76.3353 100.323C76.4187 100.278 76.4138 100.203 76.3243 100.155L74.054 98.9387C73.9645 98.8907 73.8245 98.8881 73.7407 98.9327L71.7776 99.9849C71.6942 100.029 71.6991 100.105 71.7886 100.153L74.0589 101.369C74.1484 101.417 74.2884 101.42 74.3722 101.375ZM77.2415 99.8376L79.205 98.7858C79.2884 98.7408 79.2835 98.666 79.1936 98.6181L76.9233 97.4016C76.8338 97.3537 76.6938 97.351 76.6104 97.396L74.6469 98.4478C74.5635 98.4923 74.5684 98.5675 74.6579 98.6154L76.9282 99.8319C77.0177 99.8795 77.1581 99.8821 77.2415 99.8376ZM71.5025 102.913L73.466 101.861C73.5494 101.816 73.5445 101.741 73.455 101.693L71.1847 100.477C71.0952 100.429 70.9548 100.426 70.8714 100.471L68.9083 101.522C68.8249 101.567 68.8298 101.642 68.9193 101.69L71.1896 102.906C71.2791 102.954 71.4191 102.957 71.5025 102.913ZM82.9802 96.7626L84.9436 95.7108C85.0271 95.6659 85.0222 95.5907 84.9326 95.5428L82.6623 94.3263C82.5728 94.2783 82.4324 94.2757 82.349 94.3203L80.3855 95.3724C80.3021 95.417 80.307 95.4921 80.3965 95.5401L82.6668 96.7566C82.7568 96.8045 82.8967 96.8072 82.9802 96.7626ZM80.1108 98.2997L82.0739 97.2479C82.1573 97.2033 82.1525 97.1282 82.0629 97.0802L79.7926 95.8638C79.7031 95.8158 79.5627 95.8132 79.4793 95.8577L77.5158 96.9095C77.4324 96.9545 77.4373 97.0296 77.5272 97.0776L79.7975 98.294C79.887 98.342 80.0274 98.3447 80.1108 98.2997ZM85.8495 95.2248L87.8129 94.173C87.8964 94.1284 87.8915 94.0532 87.802 94.0053L85.5317 92.7888C85.4421 92.7409 85.3017 92.7378 85.2183 92.7828L83.2548 93.8346C83.1714 93.8791 83.1767 93.9543 83.2662 94.0023L85.5361 95.2187C85.6261 95.2671 85.766 95.2697 85.8495 95.2248ZM98.9772 72.4803C99.0668 72.5282 99.2072 72.5309 99.2906 72.4863L101.254 71.4341C101.337 71.3896 101.333 71.3144 101.243 71.2664L100.639 70.9424C100.549 70.8944 100.409 70.8918 100.325 70.9364L98.3624 71.9885C98.2793 72.0331 98.2838 72.1083 98.3737 72.1562L98.9772 72.4803ZM84.859 80.9373C84.9481 80.9853 85.0885 80.9883 85.1723 80.9434L87.1358 79.8916C87.2192 79.847 87.2143 79.7718 87.1248 79.7239L84.8549 78.5074C84.7654 78.4591 84.625 78.4564 84.5416 78.5014L82.5785 79.5535C82.4951 79.5981 82.5 79.6733 82.5895 79.7212L84.859 80.9373ZM90.598 77.8624C90.6875 77.9103 90.8275 77.913 90.9109 77.8684L92.8744 76.8166C92.9578 76.7717 92.953 76.6969 92.8634 76.6485L90.5931 75.4321C90.5036 75.3841 90.3632 75.3815 90.2798 75.426L88.3163 76.4782C88.2333 76.5228 88.2378 76.5983 88.3277 76.6459L90.598 77.8624ZM81.3553 82.8151C81.4448 82.863 81.5848 82.8657 81.6686 82.8211L83.6321 81.7693C83.7155 81.7247 83.7106 81.6496 83.6207 81.6016L81.3504 80.3852C81.2609 80.3372 81.1205 80.3346 81.037 80.3795L79.0736 81.4313C78.9901 81.4759 78.995 81.551 79.0846 81.5994L81.3553 82.8151ZM87.7283 79.4002C87.8178 79.4482 87.9582 79.4508 88.0416 79.4063L90.0047 78.3541C90.0877 78.3095 90.0832 78.2344 89.9933 78.1864L87.723 76.9699C87.6335 76.922 87.4935 76.9193 87.4101 76.9639L85.4466 78.0157C85.3632 78.0606 85.3681 78.1354 85.4576 78.1834L87.7283 79.4002ZM75.6162 85.89C75.7058 85.938 75.8457 85.9406 75.9296 85.8957L77.8926 84.8439C77.9761 84.7993 77.9712 84.7242 77.8816 84.6758L75.6114 83.4594C75.5218 83.4114 75.3814 83.4087 75.298 83.4533L73.3345 84.5051C73.2511 84.5501 73.2564 84.6252 73.3459 84.6732L75.6162 85.89ZM78.4855 84.3525C78.5751 84.4005 78.7155 84.4031 78.7989 84.3586L80.7624 83.3064C80.8458 83.2618 80.8409 83.1867 80.751 83.1387L78.4811 81.9223C78.3915 81.8743 78.2511 81.8717 78.1677 81.9162L76.2047 82.968C76.1212 83.013 76.1261 83.0877 76.2157 83.1361L78.4855 84.3525ZM93.2382 75.5552C93.3277 75.6032 93.4681 75.6058 93.5516 75.5612L95.515 74.5091C95.5984 74.4645 95.5936 74.3894 95.504 74.3414L94.8997 74.0177C94.8102 73.9698 94.6702 73.9671 94.5868 74.0117L92.6233 75.0639C92.5399 75.1084 92.5448 75.1836 92.6343 75.2315L93.2382 75.5552ZM101.847 70.9424C101.936 70.9904 102.076 70.9934 102.16 70.9484L104.123 69.8966C104.207 69.8517 104.202 69.7769 104.112 69.729L103.508 69.4049C103.418 69.357 103.278 69.3543 103.194 69.3993L101.231 70.4511C101.147 70.4956 101.152 70.5712 101.242 70.6191L101.847 70.9424ZM106.615 73.4977C106.705 73.5457 106.845 73.5483 106.929 73.5037L108.892 72.4519C108.976 72.407 108.971 72.3322 108.881 72.2843L106.611 71.0678C106.521 71.0198 106.381 71.0172 106.298 71.0617L104.334 72.1139C104.251 72.1585 104.256 72.2336 104.345 72.2816L106.615 73.4977ZM113.789 80.2545L115.752 79.2023C115.836 79.1578 115.831 79.0826 115.741 79.0346L113.471 77.8182C113.382 77.7702 113.241 77.7676 113.158 77.8121L111.195 78.8639C111.111 78.9089 111.116 78.9837 111.206 79.0316L113.476 80.2481C113.565 80.2968 113.705 80.2991 113.789 80.2545ZM96.1079 74.0174C96.1975 74.0653 96.3374 74.0683 96.4213 74.0234L98.3847 72.9716C98.4682 72.927 98.4633 72.8519 98.3737 72.8039L97.7695 72.4803C97.6799 72.4323 97.5395 72.4296 97.4561 72.4742L95.4926 73.526C95.4096 73.571 95.4141 73.6457 95.504 73.6937L96.1079 74.0174ZM72.7469 87.4275C72.8365 87.4755 72.9768 87.4781 73.0603 87.4335L75.0237 86.3817C75.1072 86.3368 75.1023 86.262 75.0127 86.214L72.7425 84.9976C72.6529 84.9496 72.5125 84.947 72.4291 84.9915L70.4656 86.0437C70.3826 86.0883 70.3871 86.1634 70.477 86.2114L72.7469 87.4275Z" fill="#455A64"/>
<path d="M85.4712 103.412L104.845 93.0304C105.429 92.7177 106.376 92.7177 106.96 93.0304L118.07 98.9832C118.654 99.2959 118.654 99.8031 118.07 100.116L98.695 110.497C98.111 110.81 97.1645 110.81 96.5805 110.497L85.4712 104.545C84.8872 104.232 84.8872 103.724 85.4712 103.412Z" fill="#263238"/>
<path d="M121.099 53.4891C121.099 53.4853 121.103 53.4853 121.103 53.4853L121.079 53.4702L117.771 51.702C117.58 51.6227 117.299 51.6982 116.961 51.9361C113.883 54.1224 109.747 54.8 106.364 53.8014C106.148 53.6145 105.941 53.4169 105.745 53.2058C105.725 53.1832 105.705 53.1605 105.684 53.1416H105.68C105.566 53.0246 105.452 52.9377 105.338 52.881L105.281 52.8508L101.97 51.0864C101.591 50.9202 101.249 51.0864 101.022 51.6076C97.823 58.9834 91.0068 66.4573 86.4613 68.3268C86.1236 68.4665 85.8102 68.6818 85.5661 68.9462C85.2446 69.2898 85.0452 69.7128 85.0615 70.1547L85.7166 86.7153C85.7166 91.5003 87.8937 96.5535 92.3334 99.0121L95.759 100.848L95.8201 100.879C97.5211 101.781 99.5435 102.31 101.892 102.31C102.368 102.31 102.852 102.291 103.352 102.246C104.191 102.17 105.355 101.607 105.941 101.045C115.874 91.5237 120.704 78.6378 120.704 71.5075L121.359 54.184C121.376 53.8101 121.278 53.5797 121.099 53.4891Z" fill="#5ADB58"/>
<path d="M121.358 54.1846L120.703 71.5081C120.703 78.6384 115.873 91.5243 105.94 101.045C105.354 101.608 104.19 102.171 103.352 102.246C102.851 102.292 102.367 102.31 101.891 102.31C99.5426 102.31 97.5201 101.782 95.8191 100.879L95.7581 100.849L95.6401 100.781C91.2004 98.3223 89.0233 93.2691 89.0233 88.4841L88.3681 71.9235C88.3518 71.4816 88.5512 71.0587 88.8727 70.715C89.1169 70.4506 89.4302 70.2354 89.768 70.0956C94.3135 68.2262 101.13 60.7522 104.328 53.3764C104.556 52.8552 104.902 52.6853 105.28 52.8514L105.337 52.8816C105.451 52.9383 105.565 53.0252 105.679 53.1422H105.683C105.704 53.1611 105.724 53.1838 105.744 53.2064C109.138 56.8736 115.812 56.8698 120.268 53.7049C120.606 53.467 120.886 53.3915 121.078 53.4708L121.102 53.4859C121.102 53.4859 121.098 53.4859 121.098 53.4897C121.277 53.5803 121.375 53.8107 121.358 54.1846Z" fill="#5ADB58"/>
<path opacity="0.4" d="M121.08 53.4687C120.888 53.3894 120.608 53.4649 120.27 53.7029C116.074 56.6826 109.909 56.8601 106.373 53.8011C109.755 54.8019 113.885 54.1221 116.962 51.9354C117.299 51.6975 117.58 51.6219 117.771 51.7012L121.08 53.4687Z" fill="white"/>
<path opacity="0.4" d="M105.284 52.8491C104.905 52.6829 104.559 52.8529 104.331 53.3741C101.133 60.7499 94.3167 68.2238 89.7712 70.0933C89.4335 70.233 89.1201 70.4483 88.876 70.7127C88.7905 70.8033 88.7132 70.9015 88.6481 71.0035L85.3438 69.2322C85.4089 69.134 85.4821 69.0358 85.5676 68.9452C85.6123 68.8961 85.6612 68.8508 85.7141 68.8054L85.7181 68.8017C85.7385 68.7866 85.7548 68.7677 85.7751 68.7488C85.7955 68.7337 85.8117 68.7186 85.8321 68.6997C86.0193 68.5486 86.2349 68.4165 86.4628 68.3258C91.0083 66.4564 97.8245 58.9824 101.023 51.6066C101.251 51.0854 101.593 50.9192 101.971 51.0854L105.284 52.8491Z" fill="white"/>
<path d="M85.7188 68.7981C85.7351 68.7792 85.7554 68.7641 85.7758 68.749C85.7554 68.7679 85.7391 68.7868 85.7188 68.8019C85.7188 68.8019 85.7143 68.7981 85.7188 68.7981Z" fill="#5ADB58"/>
<path opacity="0.15" d="M85.7756 68.749C85.7552 68.7679 85.739 68.7868 85.7186 68.8019C85.7186 68.8019 85.7145 68.7981 85.7186 68.7981C85.7345 68.7792 85.7548 68.7641 85.7756 68.749Z" fill="black"/>
<path opacity="0.15" d="M95.8209 100.877L95.7599 100.851L92.3335 99.0113C87.8938 96.5527 85.7167 91.4996 85.7167 86.7145L85.0615 70.1539C85.0493 69.8291 85.1551 69.5119 85.3423 69.2324L88.6466 71.0037C88.4635 71.2831 88.3577 71.5966 88.3699 71.9214L89.0251 88.482C89.0251 93.267 91.2022 98.3202 95.6418 100.779L95.7599 100.847L95.8209 100.877Z" fill="black"/>
<path d="M107.509 85.6392L102.22 88.4729L103.04 79.5943C102.407 79.2839 102.004 78.5203 102.004 77.4235C102.004 75.4683 103.285 73.1974 104.865 72.3507C106.444 71.5044 107.725 72.4028 107.725 74.358C107.725 75.4548 107.322 76.6504 106.689 77.6388L107.509 85.6392Z" fill="#455A64"/>
<path d="M107.509 85.6389L102.719 83.0723L102.221 88.4729L107.509 85.6389Z" fill="#37474F"/>
<path d="M104.865 72.3507C103.832 72.9048 102.929 74.0691 102.426 75.355L106.69 77.6399V77.6388C107.323 76.6504 107.726 75.4548 107.726 74.358C107.726 72.4028 106.445 71.5044 104.865 72.3507Z" fill="#37474F"/>
<path d="M38.7129 137.216V138.693C38.7064 140.427 39.9378 142.163 42.4079 143.486C46.1277 145.479 51.5908 145.965 56.1656 144.949L60.4144 147.226L63.6789 146.541L65.9069 147.734L66.0285 150.233L67.2286 150.877L70.2432 151.122L72.4097 152.244V153.653L75.1284 155.109H82.0423L84.5205 153.782V152.292L62.408 141.934C63.4266 140.932 63.9373 139.82 63.9397 138.708V137.216C63.6073 135.776 62.314 135.032 60.2492 133.926C55.3224 131.286 47.3347 131.286 42.4079 133.926C40.1929 135.114 38.9363 135.665 38.7129 137.216ZM45.4856 135.492C46.8814 134.744 49.1439 134.744 50.5397 135.492C51.9355 136.24 51.9355 137.452 50.5397 138.2C49.1439 138.948 46.8814 138.948 45.4856 138.2C44.0898 137.452 44.0898 136.24 45.4856 135.492Z" fill="#4294F3"/>
<path opacity="0.1" d="M38.7129 137.216V138.693C38.7064 140.427 39.9378 142.163 42.4079 143.486C46.1277 145.479 51.5908 145.965 56.1656 144.949L60.4144 147.226L63.6789 146.541L65.9069 147.734L66.0285 150.233L67.2286 150.877L70.2432 151.122L72.4097 152.244V153.653L75.1284 155.109H82.0423L84.5205 153.782V152.292L62.408 141.934C63.4266 140.932 63.9373 139.82 63.9397 138.708V137.216C63.6073 135.776 62.314 135.032 60.2492 133.926C55.3224 131.286 47.3347 131.286 42.4079 133.926C40.1929 135.114 38.9363 135.665 38.7129 137.216ZM45.4856 135.492C46.8814 134.744 49.1439 134.744 50.5397 135.492C51.9355 136.24 51.9355 137.452 50.5397 138.2C49.1439 138.948 46.8814 138.948 45.4856 138.2C44.0898 137.452 44.0898 136.24 45.4856 135.492Z" fill="black"/>
<path d="M42.408 141.997C46.1278 143.99 51.5909 144.476 56.1657 143.459L60.4145 145.736L63.679 145.051L65.9069 146.245L66.0286 148.744L67.2287 149.387L70.2432 149.633L72.5937 150.85L72.4098 152.164L75.1285 153.62H82.0424L84.5206 152.293L62.4081 140.445C65.0125 137.881 64.2975 134.606 60.2493 132.437C55.3225 129.797 47.3348 129.797 42.408 132.437C37.4812 135.076 37.4812 139.357 42.408 141.997ZM45.4856 134.002C46.8814 133.255 49.144 133.255 50.5398 134.002C51.9356 134.75 51.9356 135.963 50.5398 136.711C49.144 137.458 46.8814 137.458 45.4856 136.711C44.0898 135.962 44.0898 134.75 45.4856 134.002Z" fill="#4294F3"/>
<path opacity="0.3" d="M51.3293 142.679C48.2016 142.679 45.2819 142.038 43.1076 140.873C41.2031 139.853 40.1113 138.52 40.1113 137.216C40.1113 135.913 41.2035 134.58 43.1076 133.56C45.2819 132.395 48.202 131.754 51.3298 131.754C54.4575 131.754 57.3772 132.395 59.5515 133.56C61.4556 134.581 62.5478 135.914 62.5478 137.217C62.5478 138.52 61.4556 139.853 59.5519 140.873C57.3768 142.038 54.4571 142.679 51.3293 142.679ZM51.3293 132.273C48.2985 132.273 45.4776 132.89 43.3868 134.009C41.6605 134.935 40.6701 136.103 40.6701 137.216C40.6701 138.329 41.6605 139.498 43.3868 140.424C45.4772 141.544 48.2981 142.16 51.3289 142.16C54.3598 142.16 57.1803 141.544 59.2711 140.424C60.9974 139.499 61.9874 138.33 61.9874 137.217C61.9874 136.104 60.9973 134.935 59.2707 134.009C57.1811 132.89 54.3606 132.273 51.3293 132.273Z" fill="black"/>
<path opacity="0.1" d="M46.7891 143.521V145.011C49.8028 145.634 53.1747 145.613 56.1665 144.948V143.459C53.1751 144.123 49.8032 144.144 46.7891 143.521Z" fill="black"/>
<path opacity="0.1" d="M60.4141 145.736V147.226L63.6785 146.541V145.051L60.4141 145.736Z" fill="black"/>
<path opacity="0.1" d="M65.9062 146.245V147.735L66.0279 150.234V148.745L65.9062 146.245Z" fill="black"/>
<path opacity="0.1" d="M67.2285 149.388V150.878L70.2431 151.123V149.633L67.2285 149.388Z" fill="black"/>
<path opacity="0.1" d="M82.0428 153.62H75.1289V155.11H82.0428V153.62Z" fill="black"/>
<path opacity="0.15" d="M84.5212 152.293V153.783L82.043 155.11V153.62L83.1291 153.038V153.681L83.7285 153.36V152.71L84.5212 152.293Z" fill="black"/>
<path d="M83.7283 152.71L83.1289 153.038V153.681L83.7283 153.36V152.71Z" fill="#4294F3"/>
<path opacity="0.15" d="M83.7273 152.711V153.361L61.0508 141.209L61.6502 140.881L83.7273 152.711Z" fill="black"/>
<path opacity="0.15" d="M61.6502 140.881V141.531L61.0508 141.209L61.6502 140.881Z" fill="black"/>
<path d="M160.23 96.8914C160.515 87.0551 159.665 84.6977 156.844 82.8955L155.75 88.5952C155.75 88.5952 157.036 95.312 156.898 97.5489C156.777 99.5143 156.571 101.973 156.07 103.562C155.981 103.843 155.777 104.08 155.509 104.235C154.79 104.653 154.5 105.081 153.959 105.607C153.536 106.018 153.175 106.121 153.23 106.252C153.302 106.42 153.604 106.693 154.124 106.546C154.385 106.472 154.722 106.282 155.143 106.032C155.143 106.032 154.842 106.852 154.099 107.698C153.091 108.844 153.047 109.548 155.081 109.565C156.356 109.576 157.373 108.846 158.332 106.239C158.608 105.488 159.041 104.302 159.228 103.312C159.716 100.731 160.184 98.4746 160.23 96.8914Z" fill="#B16668"/>
<path d="M154.469 82.1485C155.816 81.9672 157.647 82.2293 158.829 84.1924C160.012 86.1555 160.302 89.5322 160.436 92.89C160.436 92.89 158.087 94.7134 155.269 93.8168L154.469 82.1485Z" fill="#27DEBF"/>
<path opacity="0.7" d="M154.469 82.1485C155.816 81.9672 157.647 82.2293 158.829 84.1924C160.012 86.1555 160.302 89.5322 160.436 92.89C160.436 92.89 158.087 94.7134 155.269 93.8168L154.469 82.1485Z" fill="black"/>
<path d="M158.432 136.249C158.646 136.324 158.7 136.702 158.732 137.454C158.757 138.023 158.888 139.016 158.17 139.214C157.453 139.413 156.401 139.311 155.941 138.775C155.367 138.106 154.978 137.517 154.159 136.7C153.448 135.992 152.679 135.331 152.392 134.338C152.133 133.44 152.348 133.05 153.008 132.79C153.916 132.431 155.341 133.603 156.052 133.788C156.665 133.947 158.218 136.174 158.432 136.249Z" fill="#263238"/>
<path d="M158.432 135.554V136.477C158.432 136.477 157.398 137.214 155.919 136.54C155.876 136.451 155.658 135.22 155.658 135.22L158.432 135.554Z" fill="#B16668"/>
<path d="M150.379 141.569C150.379 141.569 150.664 142.372 150.818 143.074C150.94 143.632 151.115 144.565 150.905 144.985C150.694 145.404 149.873 145.675 148.599 145.666C147.775 145.661 146.489 146.18 145.61 146.636C144.701 147.106 142.811 147.294 141.849 147.189C140.716 147.065 139.543 146.456 139.359 146.021C139.176 145.585 139.42 145.133 142.089 144.077C142.114 144.067 145.8 142.955 147.092 141.632L150.379 141.569Z" fill="#263238"/>
<path d="M150.379 140.571C150.379 140.571 150.375 141.256 150.379 141.648C150.383 142.039 149.884 142.622 148.595 142.58C147.689 142.55 147.057 142.324 147.093 141.631V140.634L150.379 140.571Z" fill="#B16668"/>
<path d="M159.079 123.305C158.624 120.289 157.905 118.498 157.905 118.498C157.905 118.498 158.26 114.351 158.43 110.418C158.614 106.171 158.42 100.832 158.508 99.7724C158.508 99.7724 143.74 96.9992 143.476 101.909C143.213 106.819 144.059 119.318 144.234 121.475C144.408 123.631 144.81 125.539 145.29 129.035C145.764 132.485 147.093 140.633 147.093 140.633C148.78 141.48 150.378 140.571 150.378 140.571C150.378 140.571 151.418 130.753 151.308 128.265C151.175 125.226 150.292 122.832 150.292 122.832C150.292 122.832 150.572 118.784 150.819 115.262C151.066 111.741 151.328 110.049 151.385 108.518L151.703 108.372C151.703 108.372 152.027 114.447 152.202 116.604C152.376 118.761 152.746 120.829 153.418 124.835C154.002 128.311 155.739 135.665 155.739 135.665C157.426 136.511 158.432 135.554 158.432 135.554C158.432 135.554 159.535 126.321 159.079 123.305Z" fill="#37474F"/>
<path d="M151.387 108.517C151.387 108.517 154.969 106.879 156.762 105.401C156.762 105.401 155.098 107.579 152.912 108.544C152.912 108.544 152.135 116.09 152.139 115.941L151.69 108.506L151.387 108.517Z" fill="#263238"/>
<path d="M148.197 80.5931L149.071 85.0567L153.415 84.7621L152.503 79.7021L148.197 80.5931Z" fill="#B16668"/>
<path d="M158.004 84.4355C157.574 83.2217 155.915 81.901 154.254 82.1869C151.204 82.7126 148.785 83.275 146.984 83.8721C145.464 84.3759 144.079 85.595 143.954 90.235C143.954 90.235 143.444 101.052 143.436 103.144C147.252 104.546 151.222 104.503 153.416 104.058C157.984 103.132 158.535 101.373 158.535 101.373C158.535 101.373 158.594 93.5947 158.457 90.2353C158.34 87.3809 158.299 85.269 158.004 84.4355Z" fill="#27DEBF"/>
<g opacity="0.15">
<path d="M158.004 84.4355C157.574 83.2217 155.915 81.901 154.254 82.1869C151.204 82.7126 148.785 83.275 146.984 83.8721C145.464 84.3759 144.079 85.595 143.954 90.235C143.954 90.235 143.444 101.052 143.436 103.144C147.252 104.546 151.222 104.503 153.416 104.058C157.984 103.132 158.535 101.373 158.535 101.373C158.535 101.373 158.594 93.5947 158.457 90.2353C158.34 87.3809 158.299 85.269 158.004 84.4355Z" fill="black"/>
</g>
<path d="M144.845 75.1631C144.845 75.1631 143.743 76.7931 143.876 76.9483C144.01 77.1035 144.853 77.2282 144.853 77.2282L144.845 75.1631Z" fill="#9A4A4D"/>
<path d="M147.904 70.6532C145.607 71.1532 144.963 72.1091 144.828 75.5167C144.688 79.0774 145.106 80.187 145.621 80.6553C145.968 80.9714 147.858 80.9902 148.805 80.7266C149.99 80.3966 152.662 79.4543 153.881 77.6392C155.314 75.5039 155.635 72.6435 154.017 71.5067C151.741 69.9069 148.839 70.4496 147.904 70.6532Z" fill="#B16668"/>
<path d="M144.853 71.5398C145.527 72.6112 146.991 73.1234 146.991 73.1234C147.431 73.589 147.189 75.4056 147.964 75.6941C147.964 75.6941 148.297 74.3719 149.494 74.5124C150.7 74.6537 150.897 76.0718 150.16 76.951C149.424 77.8302 148.71 77.5141 148.71 77.5141C148.71 77.5141 148.793 79.3922 149.715 80.4368C149.715 80.4368 150.744 80.722 152.612 80.3115C153.76 80.0592 155.359 78.6864 156.011 77.2546C157.389 74.2258 157.425 71.5258 155.343 70.7603C155.086 69.3833 153.899 68.7885 152.556 68.5313C149.664 67.9784 147.801 69.653 145.575 69.5076C144.301 69.4241 144.063 70.2848 144.853 71.5398Z" fill="#263238"/>
<path d="M155.39 71.2223L156.753 70.4379C156.519 70.0886 156.025 69.9813 155.649 70.1977C155.272 70.4141 155.157 70.873 155.39 71.2223Z" fill="#263238"/>
<path d="M128.612 91.9076C129.327 92.2026 137.744 97.9759 139.056 97.3033C140.369 96.6311 147.102 89.3304 147.102 89.3304C149.057 86.3238 147.102 83.8535 147.102 83.8535C147.102 83.8535 144.943 84.2236 143.814 85.8087C142.686 87.3938 137.805 93.0735 137.805 93.0735C136.6 92.5138 135.399 91.9458 134.202 91.3709C133.215 90.897 132.227 90.4238 131.262 89.9139C131.021 89.7866 130.703 89.6631 130.503 89.4796C130.027 89.0426 130.109 87.9856 130.117 87.4108C130.122 87.1419 130.126 86.8726 130.159 86.6056C130.201 86.2774 130.268 85.4733 129.631 85.7282C129.508 85.7777 129.409 85.8668 129.327 85.9654C129.227 86.0863 129.149 86.2234 129.099 86.3684C128.979 86.7158 129.018 87.0961 128.908 87.4466C128.892 87.4976 128.871 87.5501 128.83 87.5864C128.777 87.6324 128.701 87.6457 128.628 87.6434C127.701 87.6173 126.823 86.4111 126.397 85.7705C126.207 85.4854 126.02 85.1678 125.693 85.0262C125.185 84.806 124.576 85.1213 124.249 85.5436C123.832 86.0821 123.707 86.7816 123.79 87.4402C123.904 88.353 124.281 89.1975 124.999 89.8187C126.087 90.7618 127.269 91.3532 128.612 91.9076Z" fill="#B16668"/>
<path d="M147.788 83.6182C146.86 83.7175 145.317 83.7824 143.806 85.3705C142.04 87.2275 139.713 90.259 139.713 90.259C139.713 90.259 140.344 93.1988 143.784 93.8159C143.784 93.8159 146.969 90.7874 147.855 89.12C148.74 87.4522 148.882 84.7436 147.788 83.6182Z" fill="#27DEBF"/>
<path opacity="0.7" d="M147.788 83.6182C146.86 83.7175 145.317 83.7824 143.806 85.3705C142.04 87.2275 139.713 90.259 139.713 90.259C139.713 90.259 140.344 93.1988 143.784 93.8159C143.784 93.8159 146.969 90.7874 147.855 89.12C148.74 87.4522 148.882 84.7436 147.788 83.6182Z" fill="black"/>
</svg>
