<svg width="205" height="189" viewBox="0 0 205 189" fill="none" xmlns="http://www.w3.org/2000/svg">
<path d="M180.517 161.264C176.325 165.268 172.358 167.85 169.223 169.891C132.379 193.872 88.7827 186.882 79.5172 185.174C65.835 182.654 39.3877 177.781 20.2668 157.382C-8.66162 126.522 -4.15706 77.9014 18.2817 45.8065C22.3861 39.9358 44.0668 7.35195 88.1328 2.12653C114.801 -1.03584 145.888 5.3423 168.4 22.4518C215.654 58.3662 212.29 130.92 180.517 161.264Z" fill="url(#paint0_linear_653_12819)"/>
<path d="M39.0654 53.6006C39.0844 52.6931 39.9117 51.9629 40.9257 51.9629H102.431C103.459 51.9629 104.551 52.7156 104.551 53.6355V182.118C104.551 182.805 104.116 183.463 103.573 183.948C103.03 184.433 102.229 184.704 101.462 184.702L39.2824 184.551C38.5086 184.549 37.7521 184.269 37.2108 183.774C36.6695 183.279 36.3648 182.608 36.3794 181.916L39.0654 53.6006Z" fill="#BDD0FB"/>
<g opacity="0.52">
<path d="M74.3867 61.0676L94.5067 61.0052L94.4991 58.752L74.4017 58.8088L74.3867 61.0676Z" fill="white"/>
<path d="M74.332 69.366L94.5347 69.2835L94.5271 67.0117L74.3472 67.0886L74.332 69.366Z" fill="white"/>
<path d="M74.2754 77.7353L94.5615 77.6323L94.5539 75.3418L74.2907 75.4392L74.2754 77.7353Z" fill="white"/>
<path d="M74.2207 86.1717L94.591 86.0478L94.5832 83.7383L74.2361 83.8565L74.2207 86.1717Z" fill="white"/>
<path d="M74.1621 94.6809L94.6171 94.5358L94.6094 92.207L74.1776 92.3462L74.1621 94.6809Z" fill="white"/>
<path d="M74.0488 111.912L94.6756 111.723L94.6677 109.355L74.0646 109.538L74.0488 111.912Z" fill="white"/>
<path d="M73.873 138.306L94.7628 138.05L94.7548 135.621L73.8892 135.871L73.873 138.306Z" fill="white"/>
<path d="M74.1055 103.259L94.6459 103.092L94.6382 100.744L74.1211 100.905L74.1055 103.259Z" fill="white"/>
<path d="M73.9902 120.636L94.7039 120.425L94.6959 118.037L74.0061 118.242L73.9902 120.636Z" fill="white"/>
<path d="M73.9316 129.435L94.7331 129.201L94.725 126.793L73.9477 127.02L73.9316 129.435Z" fill="white"/>
<path d="M73.8125 147.255L94.7916 146.975L94.7834 144.525L73.8288 144.799L73.8125 147.255Z" fill="white"/>
<path d="M73.7539 156.282L94.823 155.978L94.8147 153.508L73.7705 153.805L73.7539 156.282Z" fill="white"/>
<path d="M73.6934 165.384L94.8531 165.056L94.8448 162.564L73.7099 162.886L73.6934 165.384Z" fill="white"/>
<path d="M73.6328 174.567L94.8841 174.214L94.8758 171.701L73.6497 172.047L73.6328 174.567Z" fill="white"/>
<path d="M48.0078 61.1493L68.2539 61.0865L68.2759 58.8262L48.0524 58.8834L48.0078 61.1493Z" fill="white"/>
<path d="M47.8438 69.4753L68.1737 69.3923L68.1958 67.1133L47.8888 67.1907L47.8438 69.4753Z" fill="white"/>
<path d="M47.6777 77.8704L68.0921 77.7667L68.1144 75.4688L47.7231 75.5668L47.6777 77.8704Z" fill="white"/>
<path d="M47.5098 86.3362L68.0094 86.2116L68.0318 83.8945L47.5556 84.0135L47.5098 86.3362Z" fill="white"/>
<path d="M47.3438 94.871L67.9291 94.725L67.9518 92.3887L47.3899 92.5288L47.3438 94.871Z" fill="white"/>
<path d="M47.002 112.157L67.7614 111.968L67.7844 109.592L47.049 109.775L47.002 112.157Z" fill="white"/>
<path d="M46.4785 138.642L67.5044 138.384L67.528 135.947L46.5267 136.199L46.4785 138.642Z" fill="white"/>
<path d="M47.1738 103.479L67.8459 103.311L67.8688 100.955L47.2204 101.117L47.1738 103.479Z" fill="white"/>
<path d="M46.8281 120.913L67.6757 120.701L67.6989 118.305L46.8755 118.511L46.8281 120.913Z" fill="white"/>
<path d="M46.6543 129.739L67.5907 129.504L67.6141 127.088L46.7021 127.317L46.6543 129.739Z" fill="white"/>
<path d="M46.3027 147.622L67.419 147.341L67.4428 144.883L46.3514 145.158L46.3027 147.622Z" fill="white"/>
<path d="M46.125 156.679L67.3324 156.373L67.3565 153.895L46.174 154.194L46.125 156.679Z" fill="white"/>
<path d="M45.9434 165.815L67.2428 165.485L67.267 162.984L45.9928 163.308L45.9434 165.815Z" fill="white"/>
<path d="M45.7617 175.029L67.1538 174.674L67.1783 172.152L45.8116 172.5L45.7617 175.029Z" fill="white"/>
</g>
<path d="M3.77104 89.04C3.79801 87.9905 4.96722 87.127 6.40041 87.127H60.5718C62.0242 87.127 63.4506 88.0356 63.4506 89.0993V184.177C63.4506 184.689 63.048 185.18 62.5533 185.541C62.0586 185.903 61.3255 186.105 60.6269 186.103L3.98772 185.99C3.28292 185.989 2.59289 185.78 2.09996 185.411C1.60703 185.042 1.32909 184.532 1.34224 184.016L3.77104 89.04Z" fill="#BDD0FB"/>
<path d="M43.666 98.332L59.0983 98.3168L59.2207 92.5234H43.7735L43.666 98.332Z" fill="url(#paint1_linear_653_12819)"/>
<path d="M26.3672 98.3291L41.7839 98.3138L41.8896 92.5234H26.4579L26.3672 98.3291Z" fill="url(#paint2_linear_653_12819)"/>
<path d="M9.08789 98.3262L24.4892 98.311L24.578 92.5234H9.16187L9.08789 98.3262Z" fill="url(#paint3_linear_653_12819)"/>
<path d="M43.4727 108.73L58.878 108.737L59 102.981L43.5797 102.977L43.4727 108.73Z" fill="url(#paint4_linear_653_12819)"/>
<path d="M26.2051 108.723L41.595 108.73L41.7003 102.977L26.2955 102.973L26.2051 108.723Z" fill="url(#paint5_linear_653_12819)"/>
<path d="M8.95508 108.714L24.3296 108.721L24.4181 102.971L9.02876 102.967L8.95508 108.714Z" fill="url(#paint6_linear_653_12819)"/>
<path d="M43.2793 119.059L58.6578 119.071L58.7794 113.335L43.386 113.326L43.2793 119.059Z" fill="url(#paint7_linear_653_12819)"/>
<path d="M26.043 119.045L41.4061 119.056L41.511 113.324L26.133 113.314L26.043 119.045Z" fill="url(#paint8_linear_653_12819)"/>
<path d="M8.82227 119.032L24.17 119.044L24.2582 113.314L8.89565 113.305L8.82227 119.032Z" fill="url(#paint9_linear_653_12819)"/>
<path d="M43.0898 129.35L58.4417 129.366L58.5628 123.651L43.1961 123.637L43.0898 129.35Z" fill="url(#paint10_linear_653_12819)"/>
<path d="M25.8828 129.331L41.2194 129.348L41.3239 123.635L25.9725 123.621L25.8828 129.331Z" fill="url(#paint11_linear_653_12819)"/>
<path d="M8.69141 129.313L24.0125 129.329L24.1005 123.619L8.7645 123.605L8.69141 129.313Z" fill="url(#paint12_linear_653_12819)"/>
<path d="M42.8965 139.606L58.2217 139.627L58.3424 133.931L43.0025 133.912L42.8965 139.606Z" fill="url(#paint13_linear_653_12819)"/>
<path d="M25.7188 139.583L41.0287 139.604L41.1328 133.911L25.8082 133.893L25.7188 139.583Z" fill="url(#paint14_linear_653_12819)"/>
<path d="M8.55859 139.559L23.8533 139.58L23.9408 133.889L8.63146 133.871L8.55859 139.559Z" fill="url(#paint15_linear_653_12819)"/>
<path d="M42.707 149.826L58.0057 149.852L58.126 144.175L42.8126 144.152L42.707 149.826Z" fill="url(#paint16_linear_653_12819)"/>
<path d="M25.5586 149.798L40.8421 149.823L40.9459 144.15L25.6477 144.127L25.5586 149.798Z" fill="url(#paint17_linear_653_12819)"/>
<path d="M8.42773 149.77L23.6959 149.795L23.7832 144.124L8.50038 144.102L8.42773 149.77Z" fill="url(#paint18_linear_653_12819)"/>
<path d="M42.5176 160.014L57.7898 160.044L57.9098 154.387L42.6228 154.359L42.5176 160.014Z" fill="url(#paint19_linear_653_12819)"/>
<path d="M25.4004 159.98L40.6575 160.01L40.7609 154.356L25.4892 154.328L25.4004 159.98Z" fill="url(#paint20_linear_653_12819)"/>
<path d="M8.29883 159.946L23.5407 159.976L23.6278 154.324L8.37125 154.297L8.29883 159.946Z" fill="url(#paint21_linear_653_12819)"/>
<path d="M42.3301 170.162L57.576 170.197L57.6955 164.559L42.435 164.527L42.3301 170.162Z" fill="url(#paint22_linear_653_12819)"/>
<path d="M25.2402 170.124L40.471 170.159L40.5741 164.524L25.3287 164.492L25.2402 170.124Z" fill="url(#paint23_linear_653_12819)"/>
<path d="M8.16797 170.086L23.3836 170.121L23.4702 164.489L8.24009 164.457L8.16797 170.086Z" fill="url(#paint24_linear_653_12819)"/>
<path d="M42.1426 180.28L57.3622 180.318L57.4813 174.7L42.2471 174.664L42.1426 180.28Z" fill="url(#paint25_linear_653_12819)"/>
<path d="M25.082 180.236L40.2866 180.275L40.3894 174.659L25.1702 174.623L25.082 180.236Z" fill="url(#paint26_linear_653_12819)"/>
<path d="M8.03906 180.192L23.2285 180.231L23.315 174.618L8.11089 174.582L8.03906 180.192Z" fill="url(#paint27_linear_653_12819)"/>
<path d="M145.175 91.3115C145.202 90.262 146.371 89.3984 147.805 89.3984H201.976C203.428 89.3984 204.855 90.3071 204.855 91.3708V186.449C204.855 186.961 204.452 187.451 203.958 187.813C203.463 188.174 202.73 188.376 202.031 188.375L145.392 188.262C144.687 188.26 143.997 188.052 143.504 187.683C143.011 187.314 142.733 186.804 142.747 186.288L145.175 91.3115Z" fill="#BDD0FB"/>
<g opacity="0.5">
<path d="M185.07 100.601L200.503 100.586L200.625 94.793H185.178L185.07 100.601Z" fill="white"/>
<path d="M167.771 100.599L183.188 100.583L183.294 94.793H167.862L167.771 100.599Z" fill="white"/>
<path d="M150.492 100.596L165.893 100.581L165.982 94.793H150.566L150.492 100.596Z" fill="white"/>
<path d="M184.877 110.999L200.282 111.006L200.404 105.251L184.984 105.246L184.877 110.999Z" fill="white"/>
<path d="M167.609 110.992L182.999 111L183.105 105.247L167.7 105.242L167.609 110.992Z" fill="white"/>
<path d="M150.359 110.984L165.734 110.991L165.822 105.241L150.433 105.236L150.359 110.984Z" fill="white"/>
<path d="M184.684 121.329L200.062 121.341L200.184 115.605L184.79 115.596L184.684 121.329Z" fill="white"/>
<path d="M167.447 121.314L182.81 121.326L182.915 115.593L167.537 115.584L167.447 121.314Z" fill="white"/>
<path d="M150.227 121.302L165.574 121.313L165.663 115.583L150.3 115.574L150.227 121.302Z" fill="white"/>
<path d="M184.494 131.619L199.846 131.636L199.967 125.92L184.6 125.906L184.494 131.619Z" fill="white"/>
<path d="M167.287 131.601L182.624 131.617L182.728 125.904L167.377 125.891L167.287 131.601Z" fill="white"/>
<path d="M150.096 131.583L165.417 131.599L165.505 125.889L150.169 125.875L150.096 131.583Z" fill="white"/>
<path d="M184.303 141.875L199.628 141.896L199.749 136.2L184.409 136.182L184.303 141.875Z" fill="white"/>
<path d="M167.125 141.853L182.435 141.874L182.539 136.181L167.214 136.162L167.125 141.853Z" fill="white"/>
<path d="M149.965 141.828L165.26 141.849L165.347 136.159L150.038 136.141L149.965 141.828Z" fill="white"/>
<path d="M184.111 152.096L199.41 152.121L199.53 146.445L184.217 146.422L184.111 152.096Z" fill="white"/>
<path d="M166.963 152.068L182.246 152.093L182.35 146.419L167.052 146.396L166.963 152.068Z" fill="white"/>
<path d="M149.832 152.039L165.1 152.065L165.188 146.394L149.905 146.371L149.832 152.039Z" fill="white"/>
<path d="M183.922 162.283L199.194 162.313L199.314 156.656L184.027 156.629L183.922 162.283Z" fill="white"/>
<path d="M166.805 162.249L182.062 162.279L182.165 156.625L166.893 156.598L166.805 162.249Z" fill="white"/>
<path d="M149.703 162.215L164.945 162.245L165.032 156.594L149.776 156.566L149.703 162.215Z" fill="white"/>
<path d="M183.732 172.432L198.978 172.466L199.098 166.829L183.837 166.797L183.732 172.432Z" fill="white"/>
<path d="M166.645 172.394L181.875 172.428L181.978 166.794L166.733 166.762L166.645 172.394Z" fill="white"/>
<path d="M149.572 172.356L164.788 172.39L164.875 166.758L149.644 166.727L149.572 172.356Z" fill="white"/>
<path d="M183.545 182.549L198.765 182.588L198.884 176.97L183.649 176.934L183.545 182.549Z" fill="white"/>
<path d="M166.486 182.505L181.691 182.544L181.794 176.929L166.574 176.893L166.486 182.505Z" fill="white"/>
<path d="M149.443 182.462L164.633 182.5L164.719 176.888L149.515 176.852L149.443 182.462Z" fill="white"/>
</g>
<path d="M91.3211 117.175C86.9002 104.381 78.3462 94.1856 68.2138 88.192C59.1561 82.834 52.6304 74.4894 50.2143 64.8505C49.9603 63.8374 49.6584 62.8213 49.3074 61.8056C43.9902 46.4195 29.4066 36.9623 16.7338 40.6824C4.0609 44.4024 -1.90212 59.891 3.41507 75.2771C4.50217 78.4232 5.97711 81.3207 7.74397 83.9081C13.3829 92.1653 15.5894 102.069 13.5147 111.648C11.6603 120.208 12.1635 129.847 15.4781 139.438C20.4215 153.743 30.5322 164.801 42.2393 170.368C46.6675 172.473 50.6606 175.305 53.967 178.726C59.4619 184.412 67.2057 187.085 74.3207 184.996C81.9959 182.743 86.791 175.58 87.1361 167.222C87.3313 162.493 88.5379 157.857 90.5046 153.475C95.1472 143.129 95.7912 130.109 91.3211 117.175Z" fill="#859FFC"/>
<path opacity="0.57" d="M26.8273 55.748C31.9969 65.4306 36.8232 75.2589 41.5374 85.1335C42.7171 87.6017 43.8536 90.0871 44.9986 92.569L46.7156 96.2923L48.3987 100.029C49.5101 102.524 50.6593 105.005 51.7399 107.511L54.9826 115.031C57.0747 120.07 59.2132 125.092 61.203 130.166C62.2018 132.702 63.2543 135.219 64.1969 137.774L67.0628 145.424C70.7715 155.659 74.2015 165.986 77.0555 176.453L76.5651 176.571L74.1049 168.816L73.4946 166.876L72.8316 164.951L71.4978 161.103L70.172 157.253C69.7327 155.969 69.2413 154.7 68.7785 153.423C67.8342 150.874 66.9121 148.319 65.95 145.777C62.0294 135.628 57.962 125.528 53.668 115.507C51.4791 110.511 49.3373 105.499 47.1106 100.517L45.4517 96.7766L43.7587 93.049C42.6317 90.5632 41.5045 88.0775 40.3501 85.6024C38.0874 80.6339 35.7856 75.6801 33.44 70.7437C31.1224 65.7961 28.7535 60.8674 26.3691 55.9477L26.8273 55.748Z" fill="white"/>
<path d="M128.306 91.7453C126.24 77.7737 119.41 65.7986 110.137 57.9062C101.848 50.8508 96.7476 41.1293 96.1335 30.7554C96.0689 29.665 95.9555 28.5635 95.7915 27.4542C93.3066 10.651 80.1214 -1.56759 66.3413 0.163409C52.5612 1.89434 43.4047 16.9194 45.8896 33.7227C46.3977 37.1586 47.3536 40.4021 48.6706 43.3735C52.8737 52.8566 53.2206 63.4694 49.2194 73.031C45.6438 81.5759 44.2871 91.6298 45.8361 102.105C48.1464 117.727 56.412 130.854 67.3904 138.568C71.543 141.486 75.106 145.082 77.8471 149.173C82.4022 155.973 89.8604 160.031 97.5969 159.059C105.943 158.011 112.276 151.402 114.258 142.815C115.379 137.955 117.524 133.362 120.403 129.157C127.199 119.231 130.395 105.871 128.306 91.7453Z" fill="#5988FF"/>
<path opacity="0.57" d="M73.8099 17.4336C77.2524 28.3127 80.3127 39.285 83.2488 50.2867C83.9841 53.0368 84.6714 55.7975 85.3683 58.5561L86.4129 62.6942L87.4199 66.8403C88.0797 69.6068 88.781 72.3649 89.4067 75.1385L91.2848 83.4584C92.4598 89.0197 93.6862 94.5716 94.749 100.153C95.2846 102.943 95.8792 105.722 96.3535 108.522L97.8179 116.914C99.6476 128.121 101.173 139.376 102.077 150.679L101.549 150.72L100.523 142.286L100.271 140.178L99.9628 138.076L99.3371 133.873L98.7201 129.669C98.5172 128.268 98.2578 126.873 98.0295 125.475C97.5524 122.681 97.0995 119.884 96.6029 117.093C94.5378 105.941 92.3121 94.8138 89.8376 83.7306C88.5544 78.1977 87.3227 72.6552 85.9977 67.1301L85.0164 62.9841L83.9973 58.8455C83.3197 56.0861 82.642 53.3266 81.9341 50.5735C80.5694 45.0563 79.1617 39.5475 77.7053 34.0496C76.2803 28.5448 74.7985 23.0509 73.2988 17.5638L73.8099 17.4336Z" fill="white"/>
<path d="M191.642 187.774H71.3546C70.4145 187.774 69.6523 187.071 69.6523 186.205V36.3931C69.6523 35.5267 70.4145 34.8242 71.3546 34.8242H191.642C192.582 34.8242 193.344 35.5267 193.344 36.3931V186.205C193.344 187.071 192.582 187.774 191.642 187.774Z" fill="url(#paint28_linear_653_12819)"/>
<path d="M172.287 167.626H90.4454C87.343 167.626 84.8281 165.309 84.8281 162.449V62.9799C84.8281 60.1206 87.343 57.8027 90.4454 57.8027H172.287C175.389 57.8027 177.904 60.1206 177.904 62.9799V162.449C177.904 165.309 175.389 167.626 172.287 167.626Z" fill="#74ACEE"/>
<path d="M169.191 159.985H93.6168C92.6861 159.985 91.9316 159.29 91.9316 158.432V68.389C91.9316 67.5313 92.6861 66.8359 93.6168 66.8359H169.191C170.121 66.8359 170.876 67.5313 170.876 68.389V158.432C170.876 159.29 170.121 159.985 169.191 159.985Z" fill="url(#paint29_linear_653_12819)"/>
<path d="M131.273 49.9615C133.316 49.9615 134.973 48.4346 134.973 46.5511C134.973 44.6675 133.316 43.1406 131.273 43.1406C129.229 43.1406 127.572 44.6675 127.572 46.5511C127.572 48.4346 129.229 49.9615 131.273 49.9615Z" fill="url(#paint30_linear_653_12819)"/>
<path d="M155.179 101.608L107.573 102.338C103.95 102.393 101.002 104.99 101.002 108.137V135.769C101.002 138.916 103.95 141.359 107.573 141.225L155.179 139.463C158.598 139.336 161.361 136.768 161.361 133.726V107.021C161.361 103.98 158.598 101.556 155.179 101.608Z" fill="url(#paint31_linear_653_12819)"/>
<path d="M157.587 96.6115C156.146 96.6313 154.975 95.6057 154.975 94.3207V88.2732C154.975 82.2063 149.407 77.2853 142.514 77.3037L127.005 77.345C119.935 77.3638 114.141 82.4302 114.141 88.6388V94.8275C114.141 96.1424 112.914 97.2253 111.397 97.2461C109.878 97.267 108.645 96.2146 108.645 94.8957V88.6879C108.645 79.8266 116.928 72.6172 127.006 72.6172H142.514C152.306 72.6172 160.192 79.6195 160.192 88.2265V94.2559C160.192 95.5371 159.027 96.5916 157.587 96.6115Z" fill="url(#paint32_linear_653_12819)"/>
<path d="M139.077 116.921C139.077 113.85 136.169 111.439 132.633 111.661C129.506 111.856 126.92 114.164 126.751 116.92C126.62 119.058 127.895 120.906 129.833 121.841C130.658 122.239 131.067 123.076 130.907 123.905L129.548 130.935C129.375 131.831 130.155 132.617 131.183 132.583L134.676 132.468C135.698 132.434 136.473 131.6 136.302 130.719L134.943 123.754C134.781 122.923 135.25 122.098 136.076 121.643C137.874 120.652 139.077 118.896 139.077 116.921Z" fill="url(#paint33_linear_653_12819)"/>
<path d="M43.4659 188.042C43.467 187.982 43.4626 187.921 43.4458 187.86C42.4587 184.253 37.5589 182.006 37.5589 182.006L35.6174 182.146C34.5011 185.325 34.6445 187.275 34.8238 188.144C34.8288 188.168 34.8368 188.191 34.8438 188.215C36.4454 188.347 39.7419 188.433 43.4659 188.042Z" fill="url(#paint34_linear_653_12819)"/>
<path d="M34.8438 188.216C34.9302 188.506 35.1626 188.731 35.4599 188.789C37.7382 189.231 41.3593 188.875 42.8797 188.692C43.2152 188.652 43.4604 188.366 43.4659 188.043C39.7418 188.434 36.4454 188.348 34.8438 188.216Z" fill="#91B3FA"/>
<path d="M34.8359 179.48L35.6582 183.129C35.7185 183.396 35.9414 183.596 36.2113 183.62C36.5417 183.648 37.0122 183.665 37.4853 183.601C37.9095 183.544 38.205 183.146 38.1298 182.72L37.5582 179.48H34.8359Z" fill="url(#paint35_linear_653_12819)"/>
<path d="M51.8742 188.168C49.7298 188.113 48.6208 187.88 48.0474 187.664C48.046 187.861 48.0472 188.061 48.0541 188.268C48.0615 188.489 48.2394 188.666 48.4582 188.665L60.2318 188.594C60.6076 188.592 60.8271 188.191 60.6643 187.873C59.1206 187.991 55.1889 188.254 51.8742 188.168Z" fill="#91B3FA"/>
<path d="M60.6639 187.873C60.6497 187.846 60.6375 187.818 60.6173 187.792C59.5775 186.453 56.9293 183.786 51.6962 182.63L49.1859 182.557C49.1859 182.557 48.068 184.347 48.0469 187.664C48.6203 187.88 49.7293 188.113 51.8737 188.168C55.1885 188.254 59.1202 187.991 60.6639 187.873Z" fill="url(#paint36_linear_653_12819)"/>
<path d="M48.6094 179.159C48.649 179.329 49.1713 181.925 49.3737 182.932C49.4218 183.171 49.624 183.347 49.8645 183.359C50.2943 183.381 50.9876 183.384 51.5839 183.235C51.9055 183.154 52.1216 182.852 52.0987 182.516L51.8178 178.41L48.6094 179.159Z" fill="url(#paint37_linear_653_12819)"/>
<path d="M46.7071 131.224C46.7071 131.224 50.1605 153.095 52.6527 179.12C52.6991 179.605 52.28 180.027 51.7634 180.127C51.0021 180.275 49.8829 180.451 48.9565 180.427C48.462 180.414 48.0485 180.076 47.9653 179.626C47.1163 175.038 41.0582 150.41 39.4682 144.99C39.4682 144.99 37.6418 168.014 38.2256 179.959C38.2402 180.256 38.0042 180.513 37.6838 180.547C37.1976 180.599 36.42 180.639 35.4303 180.542C35.0547 180.505 34.7516 180.243 34.6979 179.898C34.0931 176.015 30.6124 152.899 30.7604 136.246C30.7688 135.307 31.9559 127.592 31.9559 127.592L46.7071 131.224Z" fill="url(#paint38_linear_653_12819)"/>
<path d="M48.0449 94.4453L48.5073 105.89C49.8205 106.306 51.0708 106.63 52.2613 106.872C53.006 104.663 54.6457 101.95 55.9885 99.934C51.0551 98.3267 48.0449 94.4453 48.0449 94.4453Z" fill="url(#paint39_linear_653_12819)"/>
<path d="M31.4372 132.484C31.0821 132.368 30.8346 132.071 30.7959 131.726C30.3367 127.619 28.1132 102.159 42.1508 91.6856C42.1508 91.6856 42.9558 89.7444 49.5728 94.5162C56.1898 99.2879 52.647 104.29 51.0629 111.188C49.1458 119.536 45.7823 126.36 47.2705 131.497C47.3732 131.851 47.1709 132.224 46.7974 132.351C41.6573 134.097 36.537 134.154 31.4372 132.484Z" fill="url(#paint40_linear_653_12819)"/>
<path d="M47.6273 84.0586C47.6229 84.4209 42.0176 91.7588 42.0176 91.7588C42.0176 91.7588 43.0237 93.5851 47.8269 95.0678L51.973 87.2111L47.6273 84.0586Z" fill="url(#paint41_linear_653_12819)"/>
<path d="M44.8502 109.167C44.8152 109.167 44.7797 109.158 44.7486 109.138C40.2707 106.35 38.1642 101.849 38.1433 101.804C38.1042 101.718 38.1474 101.62 38.2398 101.584C38.3327 101.547 38.4391 101.587 38.4786 101.673C38.4989 101.717 40.5663 106.129 44.9523 108.86C45.0357 108.912 45.0575 109.016 45.0012 109.093C44.9662 109.141 44.9087 109.167 44.8502 109.167Z" fill="url(#paint42_linear_653_12819)"/>
<path d="M51.5189 102.928C51.4591 102.928 51.4005 102.901 51.3657 102.851C51.3521 102.831 49.9841 100.869 47.3785 96.5688C46.5773 95.2465 45.5243 94.4092 44.2488 94.0802C42.1364 93.5362 40.1007 94.58 40.0806 94.5904C39.9929 94.635 39.8821 94.6081 39.8324 94.5275C39.7828 94.4469 39.8132 94.3446 39.9006 94.2988C39.9884 94.253 42.0823 93.1731 44.3435 93.7564C45.7174 94.1097 46.8456 95.0008 47.6964 96.4049C50.2954 100.694 51.6582 102.65 51.6718 102.669C51.7262 102.747 51.7018 102.851 51.6174 102.901C51.5867 102.919 51.5526 102.928 51.5189 102.928Z" fill="url(#paint43_linear_653_12819)"/>
<path d="M52.0404 79.8516C52.0404 79.8516 54.0348 84.0743 54.1688 86.2907C54.3027 88.507 54.8209 89.9451 52.0404 90.3915C49.2598 90.8378 46.9175 89.5611 45.6485 87.3534C45.6485 87.3534 43.6602 83.9516 44.1062 82.5583C44.5522 81.1651 52.0404 79.8516 52.0404 79.8516Z" fill="url(#paint44_linear_653_12819)"/>
<path d="M46.5989 85.7661L46.7572 85.7018C46.9586 85.6199 47.045 85.3988 46.9437 85.2186C46.5517 84.5204 45.7872 82.9203 46.7747 82.5471C48.0473 82.0661 53.0882 81.1186 54.1758 79.4701C55.2211 77.8858 54.2949 75.8406 52.903 75.2589C52.8099 75.2199 52.7001 75.2508 52.6523 75.3342L52.5363 75.5365C52.4569 75.675 52.235 75.654 52.1877 75.5035C52.1424 75.3591 51.934 75.3311 51.8475 75.4586C51.5132 75.9518 50.6106 76.7514 48.1969 77.1619C44.7666 77.7454 42.4987 79.0249 42.4423 81.2095C42.4387 81.3483 42.2785 81.4255 42.1498 81.3532C41.8966 81.2109 41.4913 81.1442 40.9496 81.564C40.0075 82.294 40.393 84.1879 42.4582 85.7457C42.5564 85.8198 42.5555 85.9609 42.4493 86.0247C42.0749 86.2492 41.5168 86.7837 42.9629 87.4962C44.4587 88.2332 45.5756 88.1727 46.0058 88.1073C46.1128 88.091 46.1818 87.9955 46.1584 87.8979L45.6994 85.9779C45.6734 85.8692 45.7632 85.7662 45.8839 85.7662H46.5989V85.7661Z" fill="url(#paint45_linear_653_12819)"/>
<path d="M46.6853 86.1726C46.6853 86.1726 45.9244 83.4751 44.6122 84.2314C43.3001 84.9877 45.2932 87.2538 46.3481 87.3547L46.6853 86.1726Z" fill="url(#paint46_linear_653_12819)"/>
<path d="M72.5121 93.584C72.5121 93.584 71.5124 91.9504 71.5759 91.1568C71.6396 90.3631 71.103 89.1975 71.6739 89.2838C72.245 89.3701 72.3629 89.2997 72.5178 90.252C72.6729 91.2044 74.475 95.3641 72.5121 93.584Z" fill="url(#paint47_linear_653_12819)"/>
<path d="M72.6985 90.9863L72.6755 94.2497C65.9082 100.984 60.4308 101.38 55.989 99.933C54.6462 101.95 53.0064 104.662 52.2617 106.871C70.3336 110.543 74.5893 95.2313 74.5893 95.2313C77.037 94.2968 77.5305 93.7502 77.4252 93.1379L72.6985 90.9863Z" fill="url(#paint48_linear_653_12819)"/>
<path d="M77.9032 87.7504C77.3256 87.5342 76.1953 85.5483 75.9788 86.2016C75.7624 86.855 76.0703 87.7504 75.9788 88.0282C75.8874 88.3061 74.4783 91.5024 74.7598 92.2124C74.9628 92.7248 76.0816 92.6491 76.2523 93.4874C76.309 93.7655 76.5503 93.9651 76.8301 93.9653C77.1099 93.9654 77.3514 93.7661 77.4084 93.488C77.4312 93.3765 78.4808 87.9665 77.9032 87.7504Z" fill="url(#paint49_linear_653_12819)"/>
<path d="M59.4565 80.9534C54.8931 89.2718 58.5104 99.4247 67.536 103.63C74.872 107.049 83.5227 105.486 88.9549 100.315L120.314 114.928C120.835 115.17 121.454 115.151 121.956 114.875L125.022 113.191C125.075 113.162 125.125 113.131 125.173 113.097C125.187 113.088 125.2 113.078 125.213 113.068C125.249 113.042 125.283 113.014 125.316 112.986C125.327 112.976 125.338 112.967 125.349 112.957C125.39 112.92 125.429 112.881 125.465 112.841C125.465 112.84 125.466 112.839 125.467 112.839C125.852 112.407 125.969 111.804 125.733 111.259L123.241 105.501C123.087 105.146 122.798 104.854 122.427 104.681L119.286 103.218L118.455 104.733L115.756 103.475L116.588 101.96L114.063 100.784L113.299 102.178L110.019 100.65L110.784 99.2557L109.562 98.6864L109.168 99.4039L106.419 98.1228L106.813 97.4053L104.675 96.4089L103.843 97.9241L102.316 97.2124L103.147 95.6972L101.824 95.0804L100.992 96.5956L98.3452 95.362L99.1763 93.8468L95.4553 92.1128L93.8617 91.3703C95.1601 84.2725 91.3974 76.9253 84.0613 73.5068C75.0357 69.301 64.0197 72.635 59.4565 80.9534ZM70.1407 82.1026C71.9682 82.9542 72.7008 85.0101 71.7768 86.6945C70.8527 88.379 68.622 89.054 66.7944 88.2024C64.9669 87.3508 64.2342 85.2948 65.1583 83.6105C66.0824 81.926 68.3131 81.2509 70.1407 82.1026Z" fill="url(#paint50_linear_653_12819)"/>
<path d="M84.8756 86.0508L99.7415 92.978L98.9103 94.4932L101.558 95.7268L102.389 94.2116L103.713 94.8285L102.881 96.3437L104.409 97.0554L105.24 95.5402L107.378 96.5366L106.984 97.2541L109.734 98.5352L110.127 97.8177L111.349 98.387L110.584 99.7809L113.864 101.309L114.628 99.9152L117.153 101.091L116.322 102.607L119.02 103.864L119.851 102.349L122.992 103.813C123.363 103.985 123.652 104.277 123.806 104.633L126.299 110.39C126.609 111.108 126.308 111.927 125.588 112.323L122.521 114.006C122.019 114.282 121.4 114.302 120.879 114.059L83.0234 96.4187L84.8756 86.0508Z" fill="url(#paint51_linear_653_12819)"/>
<path d="M68.1005 102.761C77.1261 106.967 88.142 103.633 92.7053 95.3148C97.2687 86.9964 93.6514 76.8435 84.6257 72.6377C75.6001 68.4319 64.5842 71.7659 60.0209 80.0843C55.4576 88.4026 59.0749 98.5555 68.1005 102.761ZM67.3589 87.3331C65.5314 86.4815 64.7987 84.4257 65.7228 82.7412C66.6468 81.0568 68.8776 80.3817 70.7051 81.2333C72.5327 82.0849 73.2653 84.1409 72.3413 85.8253C71.4172 87.5098 69.1865 88.1848 67.3589 87.3331Z" fill="url(#paint52_linear_653_12819)"/>
<path d="M89.5193 99.4456L120.878 114.058C121.399 114.301 122.019 114.281 122.52 114.006L125.587 112.322C126.049 112.068 126.336 111.639 126.402 111.175C123.544 108.321 96.3762 97.387 95.3601 95.1367C94.9986 94.3362 94.9366 93.1239 96.0197 91.2438L94.4262 90.5012C95.7245 83.4034 91.9618 76.0562 84.6257 72.6377C75.6001 68.4319 64.5842 71.7659 60.0209 80.0843C55.4576 88.4026 59.0749 98.5555 68.1005 102.761C75.4363 106.18 84.087 104.617 89.5193 99.4456ZM70.7051 81.2334C72.5326 82.085 73.2652 84.1409 72.3412 85.8254C71.4171 87.5098 69.1864 88.1848 67.3589 87.3332C65.5313 86.4816 64.7987 84.4257 65.7227 82.7412C66.6467 81.0568 68.8775 80.3818 70.7051 81.2334Z" fill="url(#paint53_linear_653_12819)"/>
<path d="M69.7231 99.8046C76.9774 103.185 85.8312 100.505 89.499 93.8196C93.1667 87.1338 90.2594 78.9735 83.0051 75.5931C75.7507 72.2127 66.8969 74.8924 63.2292 81.5782C59.5614 88.264 62.4688 96.4242 69.7231 99.8046ZM67.3599 87.3325C65.5324 86.4809 64.7997 84.425 65.7238 82.7405C66.6478 81.0561 68.8786 80.3811 70.7061 81.2327C72.5336 82.0843 73.2662 84.1403 72.3422 85.8247C71.4182 87.5091 69.1874 88.1842 67.3599 87.3325Z" fill="url(#paint54_linear_653_12819)"/>
<path d="M44.8496 109.165C44.8496 109.165 62.0945 114.486 71.7406 107.717C72.3388 107.297 73.0937 107.114 73.8359 107.226L77.521 107.779C79.0677 108.011 80.5411 107.087 80.8746 105.676C81.0647 104.871 81.1564 103.991 80.9626 103.234L74.0058 102.848L74.2048 102.016C74.2048 102.016 71.13 102.709 71.0681 104.926C71.0681 104.926 63.8556 109.281 50.7004 102.522C50.7004 102.522 45.5777 106.217 44.8496 109.165Z" fill="url(#paint55_linear_653_12819)"/>
<g opacity="0.3">
<path d="M178.048 29.4823C177.646 29.4671 177.334 29.1547 177.351 28.7847C177.383 28.0657 177.381 27.3349 177.347 26.6122C177.329 26.2466 177.633 25.9364 178.027 25.9133C178.032 25.913 178.036 25.9128 178.041 25.9125C178.443 25.8961 178.783 26.1828 178.8 26.5529C178.837 27.3135 178.839 28.083 178.805 28.8398C178.789 29.1859 178.492 29.46 178.125 29.4814C178.1 29.4829 178.074 29.4833 178.048 29.4823ZM176.915 23.1055C176.774 22.3943 176.599 21.6821 176.393 20.9877C176.288 20.6307 176.516 20.2619 176.904 20.1644C177.293 20.0679 177.692 20.2779 177.797 20.6353C178.013 21.3657 178.198 22.1155 178.347 22.8637C178.419 23.228 178.157 23.5775 177.762 23.6442C177.733 23.649 177.705 23.6522 177.676 23.6539C177.313 23.6752 176.983 23.4434 176.915 23.1055ZM175.132 17.6575C174.824 16.9949 174.48 16.3368 174.111 15.7009C173.921 15.3744 174.055 14.9679 174.409 14.7932C174.763 14.6189 175.204 14.7414 175.394 15.0678C175.783 15.7375 176.145 16.4308 176.469 17.1283C176.628 17.4686 176.457 17.8629 176.088 18.0092C176.009 18.0403 175.928 18.0577 175.847 18.0624C175.549 18.0798 175.257 17.9252 175.132 17.6575ZM172.072 12.7138C171.61 12.1308 171.115 11.5597 170.601 11.016C170.337 10.7367 170.369 10.313 170.672 10.0699C170.975 9.82691 171.434 9.85619 171.698 10.135C172.239 10.7075 172.76 11.3089 173.247 11.9222C173.484 12.2212 173.413 12.6408 173.089 12.8593C172.973 12.9374 172.84 12.9793 172.706 12.9872C172.466 13.0012 172.224 12.9056 172.072 12.7138ZM167.893 8.52161C167.303 8.04898 166.684 7.59283 166.05 7.16639C165.726 6.94761 165.655 6.52804 165.893 6.22916C166.13 5.93002 166.585 5.86504 166.909 6.08388C167.575 6.5326 168.228 7.01259 168.848 7.50987C169.151 7.75276 169.183 8.17642 168.92 8.45588C168.787 8.59674 168.604 8.67411 168.417 8.68508C168.232 8.69577 168.043 8.64223 167.893 8.52161ZM162.812 5.28622C162.122 4.94491 161.409 4.62683 160.69 4.34049C160.321 4.19357 160.151 3.79872 160.311 3.45898C160.47 3.11897 160.898 2.96238 161.267 3.1093C162.024 3.41049 162.775 3.74553 163.5 4.10469C163.854 4.28007 163.987 4.68649 163.797 5.01282C163.674 5.22478 163.444 5.35052 163.201 5.36476C163.071 5.37245 162.936 5.3478 162.812 5.28622ZM135.795 4.97406C135.606 4.64733 135.74 4.24104 136.094 4.06675C136.821 3.70984 137.574 3.37725 138.333 3.07851C138.703 2.93302 139.13 3.09118 139.288 3.43187C139.446 3.77223 139.274 4.16632 138.905 4.31181C138.184 4.59543 137.469 4.91133 136.779 5.25033C136.684 5.29685 136.584 5.32212 136.483 5.32797C136.207 5.34412 135.933 5.21368 135.795 4.97406ZM157.082 3.17073C156.328 2.9794 155.556 2.81587 154.787 2.68503C154.392 2.6176 154.13 2.26777 154.203 1.90364C154.276 1.53925 154.656 1.30051 155.051 1.36611C155.861 1.50403 156.674 1.67615 157.468 1.87776C157.856 1.97612 158.083 2.34522 157.977 2.7024C157.892 2.9856 157.623 3.17618 157.321 3.19375C157.243 3.19832 157.162 3.19096 157.082 3.17073ZM141.629 2.6836C141.524 2.32621 141.754 1.95793 142.141 1.86121C142.936 1.66328 143.75 1.49436 144.562 1.35875C144.957 1.29098 145.336 1.53475 145.408 1.89901C145.479 2.26334 145.217 2.61228 144.821 2.67849C144.05 2.80735 143.276 2.96783 142.521 3.15609C142.473 3.16808 142.425 3.17509 142.377 3.17795C142.039 3.19771 141.721 2.99664 141.629 2.6836ZM150.984 2.28855C150.203 2.25755 149.411 2.25721 148.628 2.2878C148.227 2.30367 147.887 2.01644 147.87 1.64625C147.853 1.2811 148.157 0.971737 148.551 0.948647C148.556 0.948375 148.561 0.948034 148.566 0.948034C149.39 0.915613 150.225 0.915817 151.047 0.948306C151.448 0.964449 151.76 1.27722 151.742 1.64727C151.726 1.9928 151.429 2.26614 151.063 2.28759C151.037 2.28916 151.011 2.28936 150.984 2.28855Z" fill="#91B3FA"/>
<path d="M132.21 7.91138C132.353 7.903 132.495 7.85587 132.616 7.76746C132.909 7.55236 133.213 7.33957 133.518 7.13435C133.842 6.91612 133.914 6.49648 133.677 6.19747C133.44 5.89819 132.984 5.83219 132.66 6.05117C132.339 6.26681 132.02 6.4907 131.711 6.71696C131.396 6.94718 131.343 7.3692 131.593 7.65902C131.747 7.83795 131.98 7.92486 132.21 7.91138Z" fill="#91B3FA"/>
</g>
<g opacity="0.3">
<path d="M121.601 25.8662C121.951 25.8457 122.244 25.5934 122.278 25.261C122.314 24.9169 122.358 24.5676 122.409 24.2231C122.464 23.8561 122.186 23.5178 121.788 23.4673C121.388 23.4167 121.023 23.6735 120.968 24.0403C120.914 24.403 120.867 24.7708 120.83 25.1331C120.791 25.5018 121.084 25.8292 121.485 25.8646C121.524 25.868 121.563 25.8685 121.601 25.8662Z" fill="#91B3FA"/>
<path d="M150.143 54.4955C149.742 54.5009 149.411 54.205 149.405 53.8344C149.4 53.4641 149.72 53.1604 150.122 53.1544C150.887 53.1443 151.664 53.1038 152.439 53.0343C152.837 52.9974 153.195 53.2684 153.233 53.637C153.272 54.0056 152.98 54.3334 152.58 54.3695C152.244 54.3996 151.909 54.4244 151.575 54.444C151.098 54.4719 150.617 54.4894 150.143 54.4955ZM155.616 53.2717C155.523 52.9115 155.765 52.5501 156.156 52.4647C156.906 52.3006 157.658 52.1057 158.388 51.885C158.77 51.7688 159.181 51.9615 159.307 52.3135C159.432 52.6653 159.223 53.0441 158.842 53.1593C158.072 53.3918 157.281 53.5971 156.491 53.7695C156.45 53.7785 156.409 53.7841 156.369 53.7864C156.021 53.8067 155.699 53.5944 155.616 53.2717ZM146.184 54.2977C145.381 54.2064 144.571 54.0821 143.776 53.928C143.383 53.8518 143.131 53.4962 143.214 53.1337C143.296 52.7713 143.682 52.5398 144.076 52.6155C144.83 52.7619 145.599 52.8799 146.362 52.9665C146.761 53.0119 147.045 53.3466 146.995 53.7143C146.952 54.0394 146.663 54.2813 146.32 54.3013C146.276 54.3039 146.23 54.3029 146.184 54.2977ZM161.544 51.477C161.368 51.1443 161.518 50.7426 161.879 50.5803C162.571 50.2689 163.257 49.9264 163.918 49.5625C164.263 49.3723 164.709 49.4761 164.916 49.7942C165.122 50.1121 165.009 50.5237 164.664 50.7136C163.969 51.0969 163.246 51.4576 162.517 51.7854C162.429 51.8249 162.337 51.847 162.244 51.8523C161.959 51.8691 161.677 51.7286 161.544 51.477ZM139.964 52.9327C139.203 52.6808 138.442 52.3954 137.704 52.0843C137.339 51.9303 137.178 51.5326 137.345 51.1958C137.512 50.8587 137.943 50.7106 138.309 50.8646C139.01 51.16 139.733 51.4312 140.456 51.6702C140.834 51.7953 141.031 52.1794 140.895 52.528C140.794 52.7878 140.537 52.9545 140.256 52.9709C140.16 52.9766 140.06 52.9645 139.964 52.9327ZM134.22 50.3434C133.535 49.9434 132.86 49.5119 132.215 49.0612C131.894 48.8374 131.831 48.417 132.074 48.1216C132.317 47.826 132.773 47.7681 133.093 47.9922C133.707 48.4203 134.348 48.8303 134.999 49.2107C135.338 49.409 135.439 49.8233 135.224 50.1361C135.094 50.3245 134.879 50.4331 134.655 50.4463C134.507 50.455 134.354 50.4222 134.22 50.3434ZM129.224 46.6618C128.649 46.1334 128.093 45.5768 127.569 45.0076C127.309 44.7249 127.347 44.302 127.654 44.0625C127.961 43.8227 128.42 43.8582 128.679 44.1406C129.177 44.6816 129.706 45.2102 130.252 45.7124C130.536 45.974 130.536 46.3986 130.253 46.6606C130.122 46.7811 129.955 46.8463 129.784 46.8562C129.583 46.8681 129.378 46.8033 129.224 46.6618ZM125.218 42.0635C124.783 41.4322 124.372 40.7764 123.997 40.1144C123.811 39.7862 123.949 39.381 124.305 39.2095C124.66 39.0382 125.1 39.1653 125.287 39.4935C125.643 40.122 126.033 40.7446 126.447 41.3444C126.662 41.6569 126.562 42.0713 126.223 42.2698C126.115 42.3325 125.997 42.3662 125.879 42.3731C125.623 42.3881 125.366 42.2774 125.218 42.0635ZM122.405 36.7636C122.132 36.0611 121.889 35.3386 121.68 34.6159C121.577 34.2579 121.809 33.8905 122.197 33.7956C122.584 33.701 122.984 33.9137 123.087 34.2717C123.285 34.9583 123.516 35.6445 123.775 36.3118C123.911 36.6603 123.714 37.0442 123.336 37.169C123.27 37.1908 123.203 37.2034 123.136 37.2072C122.821 37.2256 122.517 37.0515 122.405 36.7636ZM120.925 31.0298C120.851 30.4842 120.795 29.9297 120.757 29.3821C120.743 29.1836 120.732 28.9859 120.723 28.7882C120.707 28.4183 121.013 28.0988 121.42 28.0904C121.821 28.0749 122.16 28.3624 122.177 28.7325C122.186 28.9203 122.196 29.1086 122.209 29.2971C122.245 29.8178 122.299 30.3446 122.369 30.8634C122.419 31.2308 122.136 31.5659 121.738 31.6118C121.723 31.6135 121.708 31.6149 121.693 31.6158C121.312 31.6381 120.973 31.3834 120.925 31.0298Z" fill="#91B3FA"/>
<path d="M167.526 48.7622C167.671 48.7537 167.814 48.7058 167.935 48.6162C168.242 48.3891 168.55 48.1516 168.85 47.9105C169.153 47.667 169.184 47.2434 168.92 46.9643C168.656 46.6853 168.197 46.656 167.893 46.8997C167.608 47.1287 167.316 47.3542 167.024 47.57C166.711 47.8014 166.661 48.2236 166.912 48.5125C167.066 48.6897 167.298 48.7755 167.526 48.7622Z" fill="#91B3FA"/>
</g>
<path d="M168.902 37.3364C168.986 37.2276 168.986 37.0815 168.902 36.9725L166.505 33.8627C167.242 32.2157 167.699 30.4486 167.83 28.6192L171.467 26.8036C171.594 26.74 171.664 26.6086 171.64 26.4768L170.828 21.9629C170.804 21.8309 170.692 21.7274 170.549 21.7051L166.471 21.0687C165.707 19.3762 164.655 17.8396 163.381 16.4999L164.561 12.8435C164.602 12.7154 164.55 12.5772 164.433 12.4994L160.395 9.83681C160.277 9.75902 160.118 9.75875 160 9.83619L156.626 12.0454C154.839 11.3665 152.922 10.9453 150.937 10.8248L148.967 7.47278C148.898 7.35515 148.755 7.29092 148.612 7.31285L143.714 8.0614C143.571 8.08333 143.459 8.18645 143.435 8.31825L142.744 12.077C140.908 12.7815 139.241 13.7505 137.787 14.9248L133.82 13.8376C133.681 13.7995 133.531 13.8468 133.446 13.9556L130.558 17.6768C130.473 17.7855 130.473 17.9316 130.557 18.0406L132.954 21.1505C132.217 22.7974 131.76 24.5645 131.63 26.3939L127.993 28.2095C127.865 28.2732 127.795 28.4045 127.819 28.5363L128.631 33.0504C128.655 33.1823 128.767 33.2858 128.91 33.3081L132.988 33.9446C133.753 35.6371 134.804 37.1737 136.078 38.5134L134.899 42.1698C134.857 42.2979 134.909 42.4362 135.027 42.514L139.064 45.1766C139.182 45.2544 139.341 45.2546 139.459 45.1772L142.833 42.9679C144.62 43.6468 146.537 44.068 148.522 44.1885L150.492 47.5405C150.561 47.658 150.704 47.7223 150.847 47.7005L155.745 46.9518C155.888 46.93 156 46.8269 156.024 46.695L156.715 42.9363C158.551 42.2318 160.218 41.2627 161.672 40.0885L165.639 41.1757C165.778 41.2138 165.928 41.1663 166.013 41.0576L168.902 37.3364Z" fill="#91B3FA"/>
<path d="M149.317 32.0894C146.575 31.8792 144.53 29.6524 144.758 27.1248C144.868 25.9005 145.489 24.789 146.506 23.9954C147.524 23.2018 148.815 22.8204 150.144 22.9225C152.886 23.1327 154.932 25.3596 154.704 27.8871C154.496 30.1864 152.478 31.9542 150.05 32.0962C149.809 32.1103 149.564 32.1083 149.317 32.0894ZM147.259 24.8144C146.479 25.423 146.002 26.275 145.918 27.2139C145.743 29.1515 147.311 30.8593 149.414 31.0203C151.517 31.182 153.369 29.7358 153.544 27.798C153.718 25.8604 152.15 24.1527 150.048 23.9917C149.857 23.9771 149.668 23.9756 149.48 23.9866C148.666 24.0341 147.893 24.3198 147.259 24.8144Z" fill="#BDD0FB"/>
<path d="M150.403 38.7317C150.82 38.7073 151.238 38.6634 151.656 38.5996C151.787 38.5796 151.919 38.5574 152.049 38.5335C152.694 38.4152 153.328 38.2498 153.94 38.04C153.949 38.0371 153.957 38.0343 153.965 38.0315C153.989 38.0233 154.013 38.015 154.036 38.0066C154.082 37.9905 154.128 37.9739 154.174 37.9574C154.294 37.9136 154.365 37.8042 154.357 37.6912C154.355 37.6638 154.349 37.6361 154.337 37.6092C154.278 37.4714 154.109 37.4045 153.96 37.4586C153.191 37.7391 152.384 37.9448 151.561 38.0703C147.475 38.6955 143.525 37.2761 140.943 34.6271C139.507 33.1538 138.494 31.2999 138.118 29.2054C138.051 28.8381 138.006 28.4704 137.981 28.1039C137.811 25.6371 138.561 23.2118 140.143 21.1746C141.959 18.8344 144.656 17.2863 147.736 16.8156C154.097 15.844 160.125 19.8208 161.179 25.6806C161.244 26.0419 161.289 26.4049 161.314 26.768C161.422 28.3415 161.156 29.9194 160.527 31.3874C160.511 31.4253 160.505 31.4646 160.507 31.5027C160.514 31.6031 160.583 31.696 160.691 31.7353C160.841 31.7892 161.01 31.7224 161.069 31.584C161.728 30.0428 162.008 28.3862 161.895 26.7343C161.869 26.3531 161.822 25.9722 161.754 25.5929C160.647 19.4407 154.314 15.2664 147.641 16.2862C144.408 16.7803 141.577 18.4055 139.669 20.8623C138.009 23.001 137.222 25.5471 137.4 28.1368C137.426 28.5216 137.474 28.9075 137.543 29.293C138.08 32.2732 139.843 34.8825 142.508 36.6403C144.83 38.1708 147.593 38.896 150.403 38.7317Z" fill="#BDD0FB"/>
<g opacity="0.3">
<path d="M204.117 45.6681C204.311 45.6567 204.482 45.5296 204.526 45.3459C204.611 45.0029 204.685 44.6529 204.746 44.3056C204.786 44.0799 204.62 43.8671 204.375 43.83C204.13 43.792 203.899 43.9462 203.859 44.1718C203.8 44.5028 203.73 44.8363 203.65 45.1637C203.595 45.3865 203.747 45.6082 203.989 45.6589C204.032 45.6678 204.075 45.6706 204.117 45.6681Z" fill="#91B3FA"/>
<path d="M204.52 42.5103C204.272 42.5013 204.079 42.3091 204.088 42.0804C204.112 41.5035 204.104 40.9187 204.064 40.3427C204.056 40.2212 204.046 40.0993 204.035 39.9772C204.014 39.7494 204.197 39.549 204.445 39.5297C204.679 39.52 204.909 39.6797 204.931 39.9078C204.942 40.0356 204.953 40.1631 204.961 40.2902C205.003 40.8941 205.011 41.5072 204.986 42.1122C204.977 42.3262 204.793 42.4963 204.566 42.5096C204.551 42.5105 204.536 42.5106 204.52 42.5103ZM203.704 37.896C203.549 37.2108 203.346 36.5284 203.101 35.8679C203.021 35.6513 203.146 35.4163 203.381 35.3421C203.615 35.2688 203.871 35.3835 203.951 35.6001C204.208 36.2923 204.421 37.0078 204.584 37.7262C204.635 37.9501 204.479 38.1696 204.236 38.2166C204.215 38.2207 204.193 38.2232 204.172 38.2244C203.953 38.2373 203.751 38.1 203.704 37.896ZM202.23 33.9237C201.897 33.2955 201.518 32.6801 201.104 32.094C200.968 31.9025 201.027 31.6458 201.235 31.521C201.443 31.3957 201.721 31.4496 201.857 31.6414C202.292 32.2559 202.689 32.9018 203.038 33.5603C203.146 33.7659 203.054 34.0141 202.831 34.1143C202.776 34.1385 202.719 34.152 202.662 34.1553C202.486 34.1657 202.312 34.079 202.23 33.9237ZM199.741 30.4067C199.251 29.872 198.72 29.3604 198.164 28.8871C197.981 28.7316 197.97 28.4697 198.139 28.3018C198.307 28.1343 198.591 28.1233 198.774 28.2784C199.357 28.7752 199.913 29.3113 200.428 29.8721C200.588 30.0467 200.564 30.3083 200.374 30.456C200.298 30.5152 200.206 30.5473 200.113 30.5528C199.976 30.5607 199.837 30.5109 199.741 30.4067ZM196.396 27.5562C195.78 27.1477 195.131 26.7706 194.466 26.435C194.248 26.3254 194.169 26.0735 194.288 25.8728C194.407 25.6721 194.68 25.5982 194.898 25.7087C195.594 26.0602 196.275 26.4557 196.921 26.8836C197.122 27.0173 197.168 27.2761 197.024 27.4616C196.942 27.5665 196.817 27.6257 196.687 27.6333C196.587 27.6391 196.484 27.6143 196.396 27.5562ZM192.402 25.5405C191.697 25.2827 190.968 25.0631 190.235 24.8879C189.995 24.8307 189.851 24.6045 189.913 24.3832C189.975 24.1619 190.22 24.0293 190.461 24.0861C191.23 24.2697 191.994 24.5002 192.734 24.7706C192.964 24.8552 193.077 25.0958 192.986 25.3083C192.919 25.4621 192.764 25.5591 192.596 25.569C192.532 25.5727 192.466 25.564 192.402 25.5405ZM187.996 24.4868C187.246 24.3965 186.481 24.3484 185.72 24.3443C185.472 24.3426 185.272 24.1561 185.273 23.9275C185.275 23.6988 185.477 23.518 185.725 23.5156C186.523 23.5205 187.326 23.5707 188.112 23.6654C188.358 23.6952 188.532 23.903 188.5 24.1299C188.471 24.3293 188.293 24.4771 188.083 24.4894C188.054 24.4911 188.025 24.4904 187.996 24.4868ZM180.652 24.529C180.593 24.3067 180.74 24.0829 180.982 24.0286C181.649 23.8785 182.337 23.7596 183.024 23.6752C183.129 23.6619 183.233 23.6501 183.337 23.6387C183.582 23.6057 183.807 23.7749 183.835 24.0027C183.864 24.23 183.687 24.4353 183.44 24.4618C183.343 24.4721 183.245 24.4834 183.145 24.4962C182.487 24.5767 181.831 24.6901 181.195 24.8332C181.168 24.8392 181.142 24.8427 181.116 24.8442C180.903 24.8567 180.704 24.7269 180.652 24.529Z" fill="#91B3FA"/>
</g>
<g opacity="0.3">
<path d="M186.549 59.2729C185.767 59.3093 184.976 59.3017 184.197 59.2512C183.95 59.2349 183.763 59.0371 183.781 58.8087C183.798 58.5803 184.015 58.4108 184.261 58.4248C185.003 58.4732 185.758 58.4802 186.504 58.4455C186.752 58.4337 186.963 58.6099 186.976 58.8382C186.988 59.0648 186.8 59.2582 186.556 59.2725C186.554 59.2727 186.551 59.2728 186.549 59.2729ZM188.37 58.6954C188.328 58.4701 188.492 58.2558 188.737 58.2172C189.472 58.1004 190.208 57.9415 190.923 57.7445C191.159 57.68 191.411 57.8034 191.482 58.023C191.553 58.2422 191.418 58.4726 191.18 58.5384C190.431 58.7447 189.66 58.9114 188.889 59.0335C188.873 59.0361 188.857 59.0378 188.841 59.0388C188.615 59.052 188.409 58.9063 188.37 58.6954ZM181.863 58.9658C181.094 58.8268 180.328 58.6435 179.586 58.4206C179.35 58.3497 179.221 58.1157 179.297 57.8985C179.374 57.6808 179.627 57.5627 179.864 57.6327C180.572 57.8454 181.303 58.0203 182.036 58.1533C182.28 58.1973 182.439 58.4151 182.391 58.6391C182.351 58.8278 182.177 58.9612 181.978 58.9728C181.941 58.9751 181.902 58.9729 181.863 58.9658ZM192.799 57.5772C192.699 57.3678 192.802 57.1234 193.03 57.0315C193.713 56.7552 194.385 56.4375 195.027 56.0867C195.24 55.9704 195.516 56.0353 195.642 56.2314C195.769 56.4283 195.699 56.6825 195.485 56.7991C194.812 57.1671 194.108 57.5005 193.39 57.7902C193.341 57.81 193.29 57.8211 193.239 57.8241C193.056 57.8348 192.876 57.7408 192.799 57.5772ZM177.398 57.6246C176.69 57.3199 175.994 56.9719 175.33 56.5905C175.119 56.4695 175.055 56.2138 175.187 56.0197C175.318 55.8256 175.595 55.766 175.806 55.8874C176.439 56.2516 177.102 56.5832 177.778 56.8736C178.003 56.9703 178.101 57.2167 177.995 57.4242C177.924 57.5662 177.775 57.6531 177.616 57.6624C177.544 57.6667 177.469 57.6549 177.398 57.6246ZM173.412 55.3349C172.802 54.8817 172.216 54.3903 171.672 53.8747C171.499 53.7109 171.502 53.4489 171.68 53.2893C171.858 53.1298 172.142 53.133 172.316 53.2971C172.835 53.7888 173.394 54.2574 173.976 54.6899C174.169 54.8334 174.2 55.0942 174.044 55.2723C173.961 55.3663 173.844 55.4186 173.722 55.4257C173.614 55.432 173.503 55.4024 173.412 55.3349ZM170.135 52.2311C169.66 51.6563 169.219 51.0494 168.825 50.428C168.7 50.2303 168.772 49.9768 168.986 49.8613C169.201 49.7458 169.476 49.8128 169.601 50.0097C169.977 50.6026 170.397 51.181 170.85 51.7289C171 51.9109 170.962 52.1709 170.765 52.3094C170.691 52.3611 170.607 52.3883 170.521 52.3933C170.376 52.4018 170.23 52.3456 170.135 52.2311Z" fill="#91B3FA"/>
<path d="M197.205 55.6557C197.291 55.6506 197.377 55.6225 197.451 55.5699C197.755 55.3531 198.054 55.1269 198.339 54.8979C198.526 54.7475 198.545 54.4858 198.382 54.3134C198.219 54.1418 197.935 54.1235 197.748 54.2735C197.476 54.4921 197.191 54.7077 196.901 54.9148C196.705 55.0547 196.669 55.315 196.821 55.4958C196.915 55.6086 197.061 55.6641 197.205 55.6557Z" fill="#91B3FA"/>
</g>
<path d="M198.396 47.8473C198.452 47.7744 198.452 47.6767 198.396 47.6038L196.792 45.5228C197.285 44.4207 197.591 43.2383 197.678 42.0141L200.112 40.7992C200.198 40.7566 200.244 40.6688 200.228 40.5805L199.685 37.56C199.669 37.4717 199.594 37.4024 199.498 37.3875L196.769 36.9617C196.258 35.8291 195.554 34.8008 194.702 33.9044L195.491 31.4577C195.519 31.3719 195.484 31.2794 195.405 31.2273L192.704 29.4456C192.625 29.3936 192.519 29.3934 192.439 29.4452L190.182 30.9235C188.986 30.4692 187.703 30.1874 186.375 30.1068L185.056 27.8638C185.01 27.7851 184.915 27.7421 184.819 27.7567L181.542 28.2576C181.446 28.2723 181.371 28.3414 181.355 28.4296L180.893 30.9447C179.664 31.4161 178.548 32.0646 177.576 32.8504L174.921 32.1229C174.828 32.0974 174.727 32.1291 174.671 32.2019L172.738 34.692C172.681 34.7647 172.681 34.8625 172.737 34.9354L174.341 37.0164C173.848 38.1185 173.543 39.301 173.455 40.5251L171.022 41.74C170.936 41.7826 170.89 41.8704 170.905 41.9587L171.449 44.9793C171.465 45.0675 171.54 45.1367 171.635 45.1517L174.364 45.5776C174.876 46.7101 175.58 47.7383 176.432 48.6348L175.643 51.0816C175.615 51.1673 175.649 51.2598 175.729 51.3119L178.43 53.0936C178.509 53.1456 178.615 53.1458 178.694 53.094L180.952 51.6156C182.148 52.0699 183.431 52.3517 184.759 52.4324L186.077 54.6754C186.124 54.7541 186.219 54.7971 186.315 54.7824L189.592 54.2815C189.688 54.2668 189.763 54.1978 189.779 54.1095L190.241 51.5944C191.47 51.123 192.586 50.4745 193.558 49.6888L196.213 50.4163C196.306 50.4418 196.406 50.41 196.463 50.3373L198.396 47.8473Z" fill="#91B3FA"/>
<path d="M185.286 44.3916C184.381 44.3225 183.559 43.9325 182.973 43.2936C182.386 42.6551 182.105 41.8441 182.18 41.01C182.335 39.2886 183.979 38.007 185.849 38.1472C187.717 38.2908 189.11 39.8078 188.955 41.5288C188.88 42.3628 188.457 43.1199 187.764 43.6605C187.2 44.1 186.513 44.3538 185.79 44.3961C185.624 44.4059 185.455 44.4044 185.286 44.3916ZM183.076 41.0783C183.02 41.692 183.227 42.2886 183.659 42.7586C184.09 43.2282 184.695 43.5151 185.36 43.5661C186.026 43.6163 186.673 43.4261 187.183 43.0283C187.693 42.6309 188.004 42.0736 188.059 41.4604C188.173 40.1941 187.149 39.0782 185.775 38.9727C185.651 38.9633 185.528 38.9624 185.408 38.9694C184.191 39.0406 183.179 39.9266 183.076 41.0783Z" fill="#BDD0FB"/>
<path d="M186.042 49.0137C186.326 48.997 186.611 48.967 186.897 48.9235C187.466 48.8367 188.025 48.6966 188.562 48.5064C188.586 48.4976 188.61 48.4889 188.634 48.4802C188.82 48.4126 188.929 48.2436 188.917 48.0693C188.914 48.0269 188.904 47.9841 188.886 47.9427C188.795 47.7299 188.534 47.6269 188.303 47.7101C187.804 47.892 187.282 48.0251 186.751 48.1061H186.75C186.721 48.1106 186.692 48.1147 186.663 48.1189C185.404 48.3 184.143 48.1849 182.974 47.7994C182.339 47.59 181.731 47.3006 181.165 46.9345C181.161 46.9315 181.156 46.9285 181.151 46.9255C181.137 46.9162 181.123 46.9073 181.109 46.898C179.466 45.8139 178.378 44.2049 178.048 42.3672C178.005 42.1294 177.975 41.8916 177.959 41.6542C177.849 40.0573 178.335 38.4872 179.359 37.1681C180.535 35.6532 182.281 34.6514 184.274 34.3466C186.267 34.0428 188.272 34.4711 189.916 35.5547C191.559 36.6387 192.647 38.2477 192.977 40.0855C193.02 40.3192 193.048 40.5543 193.065 40.7892C193.135 41.8081 192.962 42.8294 192.555 43.7797C192.53 43.8382 192.52 43.8988 192.525 43.9578C192.535 44.1128 192.641 44.2562 192.808 44.3169C193.039 44.4003 193.3 44.2967 193.391 44.0834C193.846 43.0201 194.04 41.8772 193.962 40.7377C193.944 40.4745 193.911 40.2117 193.864 39.9503C193.494 37.894 192.277 36.094 190.438 34.8812C188.599 33.6687 186.359 33.187 184.128 33.5295C181.897 33.8703 179.944 34.9913 178.628 36.6866C177.482 38.1621 176.939 39.9187 177.062 41.7053C177.08 41.9705 177.113 42.2369 177.161 42.5028C177.877 46.4832 181.763 49.264 186.042 49.0137Z" fill="#BDD0FB"/>
<defs>
<linearGradient id="paint0_linear_653_12819" x1="229.532" y1="243.344" x2="66.2825" y2="23.3626" gradientUnits="userSpaceOnUse">
<stop stop-color="#DAE3FE"/>
<stop offset="1" stop-color="#E9EFFD"/>
</linearGradient>
<linearGradient id="paint1_linear_653_12819" x1="43.666" y1="95.4277" x2="59.2207" y2="95.4277" gradientUnits="userSpaceOnUse">
<stop stop-color="#DAE3FE"/>
<stop offset="1" stop-color="#E9EFFD"/>
</linearGradient>
<linearGradient id="paint2_linear_653_12819" x1="26.3672" y1="95.4262" x2="41.8896" y2="95.4262" gradientUnits="userSpaceOnUse">
<stop stop-color="#DAE3FE"/>
<stop offset="1" stop-color="#E9EFFD"/>
</linearGradient>
<linearGradient id="paint3_linear_653_12819" x1="9.08789" y1="95.4248" x2="24.578" y2="95.4248" gradientUnits="userSpaceOnUse">
<stop stop-color="#DAE3FE"/>
<stop offset="1" stop-color="#E9EFFD"/>
</linearGradient>
<linearGradient id="paint4_linear_653_12819" x1="43.4726" y1="105.857" x2="59" y2="105.857" gradientUnits="userSpaceOnUse">
<stop stop-color="#DAE3FE"/>
<stop offset="1" stop-color="#E9EFFD"/>
</linearGradient>
<linearGradient id="paint5_linear_653_12819" x1="26.2051" y1="105.851" x2="41.7003" y2="105.851" gradientUnits="userSpaceOnUse">
<stop stop-color="#DAE3FE"/>
<stop offset="1" stop-color="#E9EFFD"/>
</linearGradient>
<linearGradient id="paint6_linear_653_12819" x1="8.9551" y1="105.844" x2="24.4181" y2="105.844" gradientUnits="userSpaceOnUse">
<stop stop-color="#DAE3FE"/>
<stop offset="1" stop-color="#E9EFFD"/>
</linearGradient>
<linearGradient id="paint7_linear_653_12819" x1="43.2793" y1="116.199" x2="58.7794" y2="116.199" gradientUnits="userSpaceOnUse">
<stop stop-color="#DAE3FE"/>
<stop offset="1" stop-color="#E9EFFD"/>
</linearGradient>
<linearGradient id="paint8_linear_653_12819" x1="26.043" y1="116.185" x2="41.511" y2="116.185" gradientUnits="userSpaceOnUse">
<stop stop-color="#DAE3FE"/>
<stop offset="1" stop-color="#E9EFFD"/>
</linearGradient>
<linearGradient id="paint9_linear_653_12819" x1="8.82224" y1="116.174" x2="24.2582" y2="116.174" gradientUnits="userSpaceOnUse">
<stop stop-color="#DAE3FE"/>
<stop offset="1" stop-color="#E9EFFD"/>
</linearGradient>
<linearGradient id="paint10_linear_653_12819" x1="43.0898" y1="126.502" x2="58.5628" y2="126.502" gradientUnits="userSpaceOnUse">
<stop stop-color="#DAE3FE"/>
<stop offset="1" stop-color="#E9EFFD"/>
</linearGradient>
<linearGradient id="paint11_linear_653_12819" x1="25.8828" y1="126.484" x2="41.3239" y2="126.484" gradientUnits="userSpaceOnUse">
<stop stop-color="#DAE3FE"/>
<stop offset="1" stop-color="#E9EFFD"/>
</linearGradient>
<linearGradient id="paint12_linear_653_12819" x1="8.69138" y1="126.467" x2="24.1004" y2="126.467" gradientUnits="userSpaceOnUse">
<stop stop-color="#DAE3FE"/>
<stop offset="1" stop-color="#E9EFFD"/>
</linearGradient>
<linearGradient id="paint13_linear_653_12819" x1="42.8965" y1="136.769" x2="58.3424" y2="136.769" gradientUnits="userSpaceOnUse">
<stop stop-color="#DAE3FE"/>
<stop offset="1" stop-color="#E9EFFD"/>
</linearGradient>
<linearGradient id="paint14_linear_653_12819" x1="25.7188" y1="136.748" x2="41.1328" y2="136.748" gradientUnits="userSpaceOnUse">
<stop stop-color="#DAE3FE"/>
<stop offset="1" stop-color="#E9EFFD"/>
</linearGradient>
<linearGradient id="paint15_linear_653_12819" x1="8.55859" y1="136.725" x2="23.9408" y2="136.725" gradientUnits="userSpaceOnUse">
<stop stop-color="#DAE3FE"/>
<stop offset="1" stop-color="#E9EFFD"/>
</linearGradient>
<linearGradient id="paint16_linear_653_12819" x1="42.707" y1="147.002" x2="58.126" y2="147.002" gradientUnits="userSpaceOnUse">
<stop stop-color="#DAE3FE"/>
<stop offset="1" stop-color="#E9EFFD"/>
</linearGradient>
<linearGradient id="paint17_linear_653_12819" x1="25.5586" y1="146.975" x2="40.9459" y2="146.975" gradientUnits="userSpaceOnUse">
<stop stop-color="#DAE3FE"/>
<stop offset="1" stop-color="#E9EFFD"/>
</linearGradient>
<linearGradient id="paint18_linear_653_12819" x1="8.42771" y1="146.948" x2="23.7832" y2="146.948" gradientUnits="userSpaceOnUse">
<stop stop-color="#DAE3FE"/>
<stop offset="1" stop-color="#E9EFFD"/>
</linearGradient>
<linearGradient id="paint19_linear_653_12819" x1="42.5176" y1="157.202" x2="57.9098" y2="157.202" gradientUnits="userSpaceOnUse">
<stop stop-color="#DAE3FE"/>
<stop offset="1" stop-color="#E9EFFD"/>
</linearGradient>
<linearGradient id="paint20_linear_653_12819" x1="25.4004" y1="157.169" x2="40.7609" y2="157.169" gradientUnits="userSpaceOnUse">
<stop stop-color="#DAE3FE"/>
<stop offset="1" stop-color="#E9EFFD"/>
</linearGradient>
<linearGradient id="paint21_linear_653_12819" x1="8.29884" y1="157.136" x2="23.6277" y2="157.136" gradientUnits="userSpaceOnUse">
<stop stop-color="#DAE3FE"/>
<stop offset="1" stop-color="#E9EFFD"/>
</linearGradient>
<linearGradient id="paint22_linear_653_12819" x1="42.33" y1="167.362" x2="57.6955" y2="167.362" gradientUnits="userSpaceOnUse">
<stop stop-color="#DAE3FE"/>
<stop offset="1" stop-color="#E9EFFD"/>
</linearGradient>
<linearGradient id="paint23_linear_653_12819" x1="25.2402" y1="167.325" x2="40.5741" y2="167.325" gradientUnits="userSpaceOnUse">
<stop stop-color="#DAE3FE"/>
<stop offset="1" stop-color="#E9EFFD"/>
</linearGradient>
<linearGradient id="paint24_linear_653_12819" x1="8.16795" y1="167.289" x2="23.4703" y2="167.289" gradientUnits="userSpaceOnUse">
<stop stop-color="#DAE3FE"/>
<stop offset="1" stop-color="#E9EFFD"/>
</linearGradient>
<linearGradient id="paint25_linear_653_12819" x1="42.1426" y1="177.491" x2="57.4813" y2="177.491" gradientUnits="userSpaceOnUse">
<stop stop-color="#DAE3FE"/>
<stop offset="1" stop-color="#E9EFFD"/>
</linearGradient>
<linearGradient id="paint26_linear_653_12819" x1="25.082" y1="177.449" x2="40.3894" y2="177.449" gradientUnits="userSpaceOnUse">
<stop stop-color="#DAE3FE"/>
<stop offset="1" stop-color="#E9EFFD"/>
</linearGradient>
<linearGradient id="paint27_linear_653_12819" x1="8.03905" y1="177.406" x2="23.3149" y2="177.406" gradientUnits="userSpaceOnUse">
<stop stop-color="#DAE3FE"/>
<stop offset="1" stop-color="#E9EFFD"/>
</linearGradient>
<linearGradient id="paint28_linear_653_12819" x1="167.999" y1="-84.9362" x2="129.912" y2="156.124" gradientUnits="userSpaceOnUse">
<stop stop-color="#0254B5"/>
<stop offset="0.845" stop-color="#004CA5"/>
</linearGradient>
<linearGradient id="paint29_linear_653_12819" x1="91.9317" y1="113.411" x2="170.876" y2="113.411" gradientUnits="userSpaceOnUse">
<stop stop-color="#0164D9"/>
<stop offset="1" stop-color="#3290FF"/>
</linearGradient>
<linearGradient id="paint30_linear_653_12819" x1="137.551" y1="33.1977" x2="158.45" y2="-19.1306" gradientUnits="userSpaceOnUse">
<stop stop-color="#09005D"/>
<stop offset="1" stop-color="#1A0F91"/>
</linearGradient>
<linearGradient id="paint31_linear_653_12819" x1="139.735" y1="66.2918" x2="93.6801" y2="412.635" gradientUnits="userSpaceOnUse">
<stop stop-color="#FEBBBA"/>
<stop offset="1" stop-color="#FF928E"/>
</linearGradient>
<linearGradient id="paint32_linear_653_12819" x1="138.316" y1="66.1038" x2="92.2615" y2="412.447" gradientUnits="userSpaceOnUse">
<stop stop-color="#FEBBBA"/>
<stop offset="1" stop-color="#FF928E"/>
</linearGradient>
<linearGradient id="paint33_linear_653_12819" x1="141.402" y1="105.559" x2="210.819" y2="-44.1918" gradientUnits="userSpaceOnUse">
<stop stop-color="#FE7062"/>
<stop offset="1" stop-color="#FF928E"/>
</linearGradient>
<linearGradient id="paint34_linear_653_12819" x1="34.7012" y1="185.166" x2="43.4661" y2="185.166" gradientUnits="userSpaceOnUse">
<stop stop-color="#09005D"/>
<stop offset="1" stop-color="#1A0F91"/>
</linearGradient>
<linearGradient id="paint35_linear_653_12819" x1="37.1378" y1="175.969" x2="35.7129" y2="189.462" gradientUnits="userSpaceOnUse">
<stop stop-color="#FEBBBA"/>
<stop offset="1" stop-color="#FF928E"/>
</linearGradient>
<linearGradient id="paint36_linear_653_12819" x1="48.0469" y1="185.371" x2="60.6639" y2="185.371" gradientUnits="userSpaceOnUse">
<stop stop-color="#09005D"/>
<stop offset="1" stop-color="#1A0F91"/>
</linearGradient>
<linearGradient id="paint37_linear_653_12819" x1="50.5481" y1="177.392" x2="49.9092" y2="190.935" gradientUnits="userSpaceOnUse">
<stop stop-color="#FEBBBA"/>
<stop offset="1" stop-color="#FF928E"/>
</linearGradient>
<linearGradient id="paint38_linear_653_12819" x1="48.2362" y1="188.674" x2="33.4217" y2="112.028" gradientUnits="userSpaceOnUse">
<stop stop-color="#09005D"/>
<stop offset="1" stop-color="#1A0F91"/>
</linearGradient>
<linearGradient id="paint39_linear_653_12819" x1="65.9345" y1="84.6124" x2="31.0388" y2="126.383" gradientUnits="userSpaceOnUse">
<stop stop-color="#4042E2"/>
<stop offset="1" stop-color="#4F52FF"/>
</linearGradient>
<linearGradient id="paint40_linear_653_12819" x1="58.4911" y1="86.7737" x2="9.38595" y2="184.565" gradientUnits="userSpaceOnUse">
<stop stop-color="#5862BF"/>
<stop offset="1" stop-color="#4F52FF"/>
</linearGradient>
<linearGradient id="paint41_linear_653_12819" x1="43.8189" y1="97.4792" x2="47.1818" y2="87.5153" gradientUnits="userSpaceOnUse">
<stop stop-color="#FEBBBA"/>
<stop offset="1" stop-color="#FF928E"/>
</linearGradient>
<linearGradient id="paint42_linear_653_12819" x1="47.1838" y1="65.9343" x2="45.6453" y2="78.6812" gradientUnits="userSpaceOnUse">
<stop stop-color="#4042E2"/>
<stop offset="1" stop-color="#4F52FF"/>
</linearGradient>
<linearGradient id="paint43_linear_653_12819" x1="50.3422" y1="66.3147" x2="48.8037" y2="79.0616" gradientUnits="userSpaceOnUse">
<stop stop-color="#4042E2"/>
<stop offset="1" stop-color="#4F52FF"/>
</linearGradient>
<linearGradient id="paint44_linear_653_12819" x1="53.3762" y1="82.7969" x2="31.6992" y2="101.529" gradientUnits="userSpaceOnUse">
<stop stop-color="#FEBBBA"/>
<stop offset="1" stop-color="#FF928E"/>
</linearGradient>
<linearGradient id="paint45_linear_653_12819" x1="44.4323" y1="77.2021" x2="53.9942" y2="90.5596" gradientUnits="userSpaceOnUse">
<stop stop-color="#09005D"/>
<stop offset="1" stop-color="#1A0F91"/>
</linearGradient>
<linearGradient id="paint46_linear_653_12819" x1="51.0445" y1="81.8663" x2="40.3431" y2="90.7505" gradientUnits="userSpaceOnUse">
<stop stop-color="#FEBBBA"/>
<stop offset="1" stop-color="#FF928E"/>
</linearGradient>
<linearGradient id="paint47_linear_653_12819" x1="78.0305" y1="87.1781" x2="55.5893" y2="108.211" gradientUnits="userSpaceOnUse">
<stop stop-color="#FEBBBA"/>
<stop offset="1" stop-color="#FF928E"/>
</linearGradient>
<linearGradient id="paint48_linear_653_12819" x1="78.5324" y1="88.9695" x2="56.6879" y2="109.443" gradientUnits="userSpaceOnUse">
<stop stop-color="#FEBBBA"/>
<stop offset="1" stop-color="#FF928E"/>
</linearGradient>
<linearGradient id="paint49_linear_653_12819" x1="78.9229" y1="88.1329" x2="56.4818" y2="109.166" gradientUnits="userSpaceOnUse">
<stop stop-color="#FEBBBA"/>
<stop offset="1" stop-color="#FF928E"/>
</linearGradient>
<linearGradient id="paint50_linear_653_12819" x1="48.4497" y1="48.8351" x2="103.321" y2="127.423" gradientUnits="userSpaceOnUse">
<stop stop-color="#E1473D"/>
<stop offset="1" stop-color="#E9605A"/>
</linearGradient>
<linearGradient id="paint51_linear_653_12819" x1="113.748" y1="61.9794" x2="104.055" y2="113.557" gradientUnits="userSpaceOnUse">
<stop stop-color="#FE7062"/>
<stop offset="1" stop-color="#FF928E"/>
</linearGradient>
<linearGradient id="paint52_linear_653_12819" x1="55.0971" y1="86.2341" x2="150.737" y2="93.9925" gradientUnits="userSpaceOnUse">
<stop stop-color="#FF9085"/>
<stop offset="1" stop-color="#FB6FBB"/>
</linearGradient>
<linearGradient id="paint53_linear_653_12819" x1="98.6343" y1="82.8846" x2="118.709" y2="27.5037" gradientUnits="userSpaceOnUse">
<stop stop-color="#FE7062"/>
<stop offset="1" stop-color="#FF928E"/>
</linearGradient>
<linearGradient id="paint54_linear_653_12819" x1="111.391" y1="25.1518" x2="107.933" y2="32.4204" gradientUnits="userSpaceOnUse">
<stop stop-color="#FE7062"/>
<stop offset="1" stop-color="#FF928E"/>
</linearGradient>
<linearGradient id="paint55_linear_653_12819" x1="63.6287" y1="103.9" x2="53.8194" y2="156.992" gradientUnits="userSpaceOnUse">
<stop stop-color="#FEBBBA"/>
<stop offset="1" stop-color="#FF928E"/>
</linearGradient>
</defs>
</svg>
