<svg width="287" height="261" viewBox="0 0 287 261" fill="none" xmlns="http://www.w3.org/2000/svg">
<ellipse cx="96.4651" cy="87.6826" rx="96.4651" ry="87.6826" transform="matrix(-0.6795 -0.733676 0.813264 -0.581895 137.262 244.383)" fill="#0163D6"/>
<ellipse cx="67.8526" cy="63.3496" rx="67.8526" ry="63.3496" transform="matrix(-0.6795 -0.733676 0.813264 -0.581895 183.715 259.014)" fill="#0163D6"/>
<ellipse cx="26.5688" cy="23.0744" rx="26.5688" ry="23.0744" transform="matrix(-0.6795 -0.733676 0.813264 -0.581895 65.959 260.498)" fill="#0163D6"/>
<ellipse cx="26.5688" cy="23.0744" rx="26.5688" ry="23.0744" transform="matrix(-0.6795 -0.733676 0.813264 -0.581895 59.9395 178.047)" fill="#0163D6"/>
<ellipse cx="12.6713" cy="15.5228" rx="12.6713" ry="15.5228" transform="matrix(-0.6795 -0.733676 0.813264 -0.581895 -1.7793 176.332)" fill="#0163D6"/>
<ellipse cx="23.7075" cy="33.1432" rx="23.7075" ry="33.1432" transform="matrix(-0.6795 -0.733676 0.813264 -0.581895 75.8496 89.873)" fill="#0163D6"/>
</svg>
