<svg width="17" height="20" viewBox="0 0 17 20" fill="none" xmlns="http://www.w3.org/2000/svg">
<path d="M0.0585938 17V15H2.08811V8C2.08811 6.61667 2.51092 5.39167 3.35656 4.325C4.20219 3.24167 5.30151 2.53333 6.65452 2.2V1.5C6.65452 1.08333 6.79828 0.733333 7.08579 0.449999C7.39022 0.15 7.75384 0 8.17665 0C8.59947 0 8.95464 0.15 9.24215 0.449999C9.54658 0.733333 9.69879 1.08333 9.69879 1.5V2.2C11.0518 2.53333 12.1511 3.24167 12.9968 4.325C13.8424 5.39167 14.2652 6.61667 14.2652 8V15H16.2947V17H0.0585938ZM8.17665 20C7.61854 20 7.13653 19.8083 6.73063 19.425C6.34163 19.025 6.14714 18.55 6.14714 18H10.2062C10.2062 18.55 10.0032 19.025 9.59731 19.425C9.20832 19.8083 8.73477 20 8.17665 20ZM4.11762 15H12.2357V8C12.2357 6.9 11.8382 5.95833 11.0433 5.175C10.2485 4.39167 9.29289 4 8.17665 4C7.06042 4 6.10486 4.39167 5.30996 5.175C4.51507 5.95833 4.11762 6.9 4.11762 8V15Z" fill="#1D1B20"/>
</svg>
