<svg width="206" height="83" viewBox="0 0 206 83" fill="none" xmlns="http://www.w3.org/2000/svg">
<g filter="url(#filter0_d_653_12709)">
<path d="M32.79 34.49C32.79 36.5433 32.295 38.4683 31.305 40.265C30.3517 42.0617 28.83 43.51 26.74 44.61C24.6867 45.71 22.0833 46.26 18.93 46.26H12.495V61H4.795V22.61H18.93C21.9 22.61 24.43 23.1233 26.52 24.15C28.61 25.1767 30.1683 26.5883 31.195 28.385C32.2583 30.1817 32.79 32.2167 32.79 34.49ZM18.6 40.045C20.7267 40.045 22.3033 39.5683 23.33 38.615C24.3567 37.625 24.87 36.25 24.87 34.49C24.87 30.75 22.78 28.88 18.6 28.88H12.495V40.045H18.6ZM58.0569 61L49.5869 46.04H45.9569V61H38.2569V22.61H52.6669C55.6369 22.61 58.1669 23.1417 60.2569 24.205C62.3469 25.2317 63.9052 26.6433 64.9319 28.44C65.9952 30.2 66.5269 32.18 66.5269 34.38C66.5269 36.91 65.7936 39.2017 64.3269 41.255C62.8602 43.2717 60.6786 44.665 57.7819 45.435L66.9669 61H58.0569ZM45.9569 40.265H52.3919C54.4819 40.265 56.0402 39.77 57.0669 38.78C58.0936 37.7533 58.6069 36.3417 58.6069 34.545C58.6069 32.785 58.0936 31.4283 57.0669 30.475C56.0402 29.485 54.4819 28.99 52.3919 28.99H45.9569V40.265Z" fill="black"/>
</g>
<g filter="url(#filter1_d_653_12709)">
<path d="M117.925 41.75C117.925 37.9733 118.768 34.6 120.455 31.63C122.178 28.6233 124.507 26.295 127.44 24.645C130.41 22.9583 133.728 22.115 137.395 22.115C141.685 22.115 145.443 23.215 148.67 25.415C151.897 27.615 154.152 30.6583 155.435 34.545H146.58C145.7 32.7117 144.453 31.3367 142.84 30.42C141.263 29.5033 139.43 29.045 137.34 29.045C135.103 29.045 133.105 29.5767 131.345 30.64C129.622 31.6667 128.265 33.1333 127.275 35.04C126.322 36.9467 125.845 39.1833 125.845 41.75C125.845 44.28 126.322 46.5167 127.275 48.46C128.265 50.3667 129.622 51.8517 131.345 52.915C133.105 53.9417 135.103 54.455 137.34 54.455C139.43 54.455 141.263 53.9967 142.84 53.08C144.453 52.1267 145.7 50.7333 146.58 48.9H155.435C154.152 52.8233 151.897 55.885 148.67 58.085C145.48 60.2483 141.722 61.33 137.395 61.33C133.728 61.33 130.41 60.505 127.44 58.855C124.507 57.1683 122.178 54.84 120.455 51.87C118.768 48.9 117.925 45.5267 117.925 41.75ZM169.602 22.61V46.37C169.602 48.9733 170.28 50.9717 171.637 52.365C172.993 53.7217 174.9 54.4 177.357 54.4C179.85 54.4 181.775 53.7217 183.132 52.365C184.488 50.9717 185.167 48.9733 185.167 46.37V22.61H192.922V46.315C192.922 49.5783 192.207 52.3467 190.777 54.62C189.383 56.8567 187.495 58.5433 185.112 59.68C182.765 60.8167 180.143 61.385 177.247 61.385C174.387 61.385 171.783 60.8167 169.437 59.68C167.127 58.5433 165.293 56.8567 163.937 54.62C162.58 52.3467 161.902 49.5783 161.902 46.315V22.61H169.602Z" fill="black"/>
</g>
<g filter="url(#filter2_d_653_12709)">
<path d="M92.615 61.385C89.0217 61.385 85.7217 60.5417 82.715 58.855C79.7083 57.1683 77.325 54.84 75.565 51.87C73.805 48.8633 72.925 45.4717 72.925 41.695C72.925 37.955 73.805 34.6 75.565 31.63C77.325 28.6233 79.7083 26.2767 82.715 24.59C85.7217 22.9033 89.0217 22.06 92.615 22.06C96.245 22.06 99.545 22.9033 102.515 24.59C105.522 26.2767 107.887 28.6233 109.61 31.63C111.37 34.6 112.25 37.955 112.25 41.695C112.25 45.4717 111.37 48.8633 109.61 51.87C107.887 54.84 105.522 57.1683 102.515 58.855C99.5083 60.5417 96.2083 61.385 92.615 61.385ZM92.615 54.51C94.925 54.51 96.96 53.9967 98.72 52.97C100.48 51.9067 101.855 50.4033 102.845 48.46C103.835 46.5167 104.33 44.2617 104.33 41.695C104.33 39.1283 103.835 36.8917 102.845 34.985C101.855 33.0417 100.48 31.5567 98.72 30.53C96.96 29.5033 94.925 28.99 92.615 28.99C90.305 28.99 88.2517 29.5033 86.455 30.53C84.695 31.5567 83.32 33.0417 82.33 34.985C81.34 36.8917 80.845 39.1283 80.845 41.695C80.845 44.2617 81.34 46.5167 82.33 48.46C83.32 50.4033 84.695 51.9067 86.455 52.97C88.2517 53.9967 90.305 54.51 92.615 54.51Z" fill="#03B300"/>
</g>
<defs>
<filter id="filter0_d_653_12709" x="0.794922" y="22.6094" width="70.1719" height="46.3906" filterUnits="userSpaceOnUse" color-interpolation-filters="sRGB">
<feFlood flood-opacity="0" result="BackgroundImageFix"/>
<feColorMatrix in="SourceAlpha" type="matrix" values="0 0 0 0 0 0 0 0 0 0 0 0 0 0 0 0 0 0 127 0" result="hardAlpha"/>
<feOffset dy="4"/>
<feGaussianBlur stdDeviation="2"/>
<feComposite in2="hardAlpha" operator="out"/>
<feColorMatrix type="matrix" values="0 0 0 0 0 0 0 0 0 0 0 0 0 0 0 0 0 0 0.25 0"/>
<feBlend mode="normal" in2="BackgroundImageFix" result="effect1_dropShadow_653_12709"/>
<feBlend mode="normal" in="SourceGraphic" in2="effect1_dropShadow_653_12709" result="shape"/>
</filter>
<filter id="filter1_d_653_12709" x="113.926" y="22.1152" width="82.9961" height="47.2695" filterUnits="userSpaceOnUse" color-interpolation-filters="sRGB">
<feFlood flood-opacity="0" result="BackgroundImageFix"/>
<feColorMatrix in="SourceAlpha" type="matrix" values="0 0 0 0 0 0 0 0 0 0 0 0 0 0 0 0 0 0 127 0" result="hardAlpha"/>
<feOffset dy="4"/>
<feGaussianBlur stdDeviation="2"/>
<feComposite in2="hardAlpha" operator="out"/>
<feColorMatrix type="matrix" values="0 0 0 0 0 0 0 0 0 0 0 0 0 0 0 0 0 0 0.25 0"/>
<feBlend mode="normal" in2="BackgroundImageFix" result="effect1_dropShadow_653_12709"/>
<feBlend mode="normal" in="SourceGraphic" in2="effect1_dropShadow_653_12709" result="shape"/>
</filter>
<filter id="filter2_d_653_12709" x="68.9258" y="22.0605" width="47.3242" height="47.3242" filterUnits="userSpaceOnUse" color-interpolation-filters="sRGB">
<feFlood flood-opacity="0" result="BackgroundImageFix"/>
<feColorMatrix in="SourceAlpha" type="matrix" values="0 0 0 0 0 0 0 0 0 0 0 0 0 0 0 0 0 0 127 0" result="hardAlpha"/>
<feOffset dy="4"/>
<feGaussianBlur stdDeviation="2"/>
<feComposite in2="hardAlpha" operator="out"/>
<feColorMatrix type="matrix" values="0 0 0 0 0 0 0 0 0 0 0 0 0 0 0 0 0 0 0.41 0"/>
<feBlend mode="normal" in2="BackgroundImageFix" result="effect1_dropShadow_653_12709"/>
<feBlend mode="normal" in="SourceGraphic" in2="effect1_dropShadow_653_12709" result="shape"/>
</filter>
</defs>
</svg>
