<svg width="21" height="20" viewBox="0 0 21 20" fill="none" xmlns="http://www.w3.org/2000/svg">
<g clip-path="url(#clip0_782_16453)">
<path d="M10.1476 12.4999C11.5487 12.4999 12.6845 11.3806 12.6845 9.99992C12.6845 8.61921 11.5487 7.49992 10.1476 7.49992C8.74656 7.49992 7.61075 8.61921 7.61075 9.99992C7.61075 11.3806 8.74656 12.4999 10.1476 12.4999Z" stroke="#1E1E1E" stroke-width="2" stroke-linecap="round" stroke-linejoin="round"/>
<path d="M16.4053 12.4999C16.2927 12.7513 16.2592 13.0301 16.3089 13.3004C16.3587 13.5707 16.4894 13.8202 16.6844 14.0166L16.7351 14.0666C16.8924 14.2214 17.0171 14.4052 17.1022 14.6075C17.1873 14.8098 17.2311 15.0267 17.2311 15.2458C17.2311 15.4648 17.1873 15.6817 17.1022 15.884C17.0171 16.0863 16.8924 16.2701 16.7351 16.4249C16.578 16.5799 16.3915 16.7028 16.1862 16.7867C15.9809 16.8706 15.7608 16.9137 15.5385 16.9137C15.3163 16.9137 15.0962 16.8706 14.8909 16.7867C14.6856 16.7028 14.499 16.5799 14.342 16.4249L14.2912 16.3749C14.0919 16.1828 13.8388 16.0539 13.5645 16.0049C13.2902 15.9559 13.0072 15.989 12.7522 16.0999C12.5021 16.2056 12.2888 16.381 12.1385 16.6045C11.9883 16.8281 11.9076 17.0901 11.9066 17.3582V17.4999C11.9066 17.9419 11.7284 18.3659 11.4112 18.6784C11.094 18.991 10.6638 19.1666 10.2153 19.1666C9.76675 19.1666 9.33657 18.991 9.01939 18.6784C8.70222 18.3659 8.52403 17.9419 8.52403 17.4999V17.4249C8.51749 17.1491 8.42689 16.8816 8.26401 16.6572C8.10114 16.4328 7.87352 16.2618 7.61075 16.1666C7.3557 16.0557 7.07277 16.0226 6.79845 16.0716C6.52413 16.1206 6.271 16.2495 6.0717 16.4416L6.02097 16.4916C5.86389 16.6465 5.67737 16.7695 5.47205 16.8533C5.26673 16.9372 5.04666 16.9804 4.8244 16.9804C4.60214 16.9804 4.38206 16.9372 4.17675 16.8533C3.97143 16.7695 3.7849 16.6465 3.62783 16.4916C3.47058 16.3368 3.34584 16.153 3.26072 15.9507C3.17561 15.7483 3.1318 15.5314 3.1318 15.3124C3.1318 15.0934 3.17561 14.8765 3.26072 14.6742C3.34584 14.4719 3.47058 14.288 3.62783 14.1333L3.67857 14.0833C3.87352 13.8869 4.00429 13.6374 4.05403 13.3671C4.10377 13.0967 4.07019 12.8179 3.95763 12.5666C3.85043 12.3201 3.67244 12.1099 3.44557 11.9618C3.21869 11.8138 2.95284 11.7343 2.68072 11.7333H2.53697C2.08841 11.7333 1.65824 11.5577 1.34106 11.2451C1.02389 10.9325 0.845703 10.5086 0.845703 10.0666C0.845703 9.62456 1.02389 9.20063 1.34106 8.88807C1.65824 8.57551 2.08841 8.39992 2.53697 8.39992H2.61307C2.89297 8.39347 3.16443 8.30418 3.39215 8.14368C3.61988 7.98317 3.79333 7.75886 3.88998 7.49992C4.00254 7.24857 4.03612 6.96976 3.98638 6.69943C3.93664 6.4291 3.80587 6.17965 3.61092 5.98325L3.56018 5.93325C3.40293 5.77846 3.27819 5.59465 3.19307 5.39232C3.10796 5.18999 3.06415 4.97311 3.06415 4.75408C3.06415 4.53506 3.10796 4.31818 3.19307 4.11585C3.27819 3.91352 3.40293 3.72971 3.56018 3.57492C3.71725 3.41996 3.90378 3.29703 4.10909 3.21315C4.31441 3.12928 4.53449 3.08611 4.75675 3.08611C4.97901 3.08611 5.19908 3.12928 5.4044 3.21315C5.60972 3.29703 5.79624 3.41996 5.95332 3.57492L6.00405 3.62492C6.20335 3.81703 6.45648 3.94591 6.7308 3.99492C7.00512 4.04394 7.28805 4.01085 7.5431 3.89992H7.61075C7.86086 3.79428 8.07417 3.61888 8.22442 3.39531C8.37467 3.17173 8.4553 2.90974 8.45638 2.64159V2.49992C8.45638 2.05789 8.63457 1.63397 8.95174 1.32141C9.26892 1.00885 9.6991 0.833252 10.1476 0.833252C10.5962 0.833252 11.0264 1.00885 11.3435 1.32141C11.6607 1.63397 11.8389 2.05789 11.8389 2.49992V2.57492C11.84 2.84307 11.9206 3.10506 12.0709 3.32864C12.2211 3.55221 12.4344 3.72762 12.6845 3.83325C12.9396 3.94418 13.2225 3.97727 13.4968 3.92826C13.7712 3.87924 14.0243 3.75037 14.2236 3.55825L14.2743 3.50825C14.4314 3.35329 14.6179 3.23036 14.8232 3.14649C15.0286 3.06261 15.2486 3.01944 15.4709 3.01944C15.6932 3.01944 15.9132 3.06261 16.1185 3.14649C16.3239 3.23036 16.5104 3.35329 16.6675 3.50825C16.8247 3.66304 16.9495 3.84685 17.0346 4.04918C17.1197 4.25151 17.1635 4.46839 17.1635 4.68742C17.1635 4.90644 17.1197 5.12332 17.0346 5.32565C16.9495 5.52798 16.8247 5.7118 16.6675 5.86658L16.6167 5.91658C16.4218 6.11298 16.291 6.36243 16.2413 6.63276C16.1915 6.90309 16.2251 7.1819 16.3377 7.43325V7.49992C16.4449 7.74639 16.6229 7.9566 16.8497 8.10466C17.0766 8.25272 17.3425 8.33218 17.6146 8.33325H17.7583C18.2069 8.33325 18.6371 8.50885 18.9542 8.82141C19.2714 9.13397 19.4496 9.55789 19.4496 9.99992C19.4496 10.4419 19.2714 10.8659 18.9542 11.1784C18.6371 11.491 18.2069 11.6666 17.7583 11.6666H17.6822C17.4101 11.6677 17.1443 11.7471 16.9174 11.8952C16.6905 12.0432 16.5125 12.2534 16.4053 12.4999Z" stroke="#1E1E1E" stroke-width="2" stroke-linecap="round" stroke-linejoin="round"/>
</g>
<defs>
<clipPath id="clip0_782_16453">
<rect width="20.2952" height="20" fill="white"/>
</clipPath>
</defs>
</svg>
