<svg width="1079" height="1024" viewBox="0 0 1079 1024" fill="none" xmlns="http://www.w3.org/2000/svg">
<path d="M1423.71 473.743C1339.31 733.486 938.64 1357.35 945.342 795.374C952.043 233.396 447.825 797.153 300.747 462.442C-115.711 -485.31 958.976 -26.2814 1210.93 55.5841C1462.89 137.45 818.406 192.574 1423.71 473.743Z" fill="#063C7B"/>
<path d="M1440.71 388.743C1356.31 648.486 955.64 1272.35 962.342 710.374C969.043 148.396 464.825 712.153 317.747 377.442C-98.7113 -570.31 975.976 -111.281 1227.93 -29.4159C1479.89 52.4495 835.406 107.574 1440.71 388.743Z" fill="#0A4488"/>
<path d="M1472.71 320.743C1388.31 580.486 987.64 1204.35 994.342 642.374C1001.04 80.3958 496.825 644.153 349.747 309.442C-66.7113 -638.31 1007.98 -179.281 1259.93 -97.4159C1511.89 -15.5505 867.406 39.5744 1472.71 320.743Z" fill="#003E87"/>
<path d="M1498.71 254.743C1414.31 514.486 1013.64 1138.35 1020.34 576.374C1027.04 14.3958 522.825 578.153 375.747 243.442C-40.7113 -704.31 1033.98 -245.281 1285.93 -163.416C1537.89 -81.5505 893.406 -26.4256 1498.71 254.743Z" fill="#084996"/>
<path d="M1516.71 216.743C1432.31 476.486 1031.64 1100.35 1038.34 538.374C1045.04 -23.6042 540.825 540.153 393.747 205.442C-22.7113 -742.31 1051.98 -283.281 1303.93 -201.416C1555.89 -119.55 911.406 -64.4256 1516.71 216.743Z" fill="#0A50A4"/>
</svg>
